<svg width="499" height="499" viewBox="0 0 499 499" fill="none" xmlns="http://www.w3.org/2000/svg">
<path d="M291.477 12.3968C292.671 12.0593 293.852 11.631 295.007 11.1247C299.498 9.17766 303.341 6.296 306.884 3.06388L307.222 3.40137C303.652 6.68541 299.758 9.56707 295.215 11.5661C293.774 12.1761 292.294 12.6694 290.815 13.0588L291.477 12.3968Z" fill="white" fill-opacity="0.15"/>
<path d="M279.937 23.9364C287.206 24.4037 294.748 22.8331 301.588 19.2634C306.183 16.875 310.337 13.7857 314.231 10.4108L314.556 10.7353C310.623 14.1492 306.443 17.2385 301.796 19.6788C294.748 23.3523 286.959 24.9359 279.496 24.3777L279.937 23.9364Z" fill="white" fill-opacity="0.15"/>
<path d="M272.33 31.5429C272.551 31.5819 272.785 31.6338 273.018 31.6597C285.428 33.6847 298.084 31.0756 309.636 24.0922C313.413 21.8206 317.035 19.2375 320.462 16.6414L320.786 16.9659C317.347 19.6009 313.686 22.197 309.883 24.4946C298.226 31.5299 285.467 34.165 272.954 32.1141C272.616 32.0621 272.279 31.9843 271.941 31.9323L272.33 31.5429Z" fill="white" fill-opacity="0.15"/>
<path d="M377.03 158.595C376.719 164.54 370.748 169.421 365.478 173.73C355.029 182.284 343.632 190.358 330.664 198.419C326.822 200.807 322.824 203.118 318.956 205.35C310.623 210.179 301.991 215.151 294.41 221.2C283.195 230.156 273.641 241.111 264.802 251.561C256.715 261.153 247.006 271.771 234.181 276.626C224.459 280.299 213.581 280.481 202.716 277.171C192.41 274.004 182.986 267.851 176.223 259.816C167.565 249.575 162.841 237.685 162.905 226.353C162.931 221.732 163.736 217.059 164.528 212.529C165.748 205.519 167.007 198.263 165.268 191.254C162.594 180.532 152.119 173.172 141.423 174.496C128.001 176.157 121.732 190.137 119.668 196.095C118.227 200.21 117.136 204.468 116.085 208.583C113.982 216.76 111.802 225.197 106.895 232.752C100.379 242.747 91.2016 250.548 82.336 258.09L81.4663 258.83C63.8778 273.77 47.0292 290.385 50.7027 314.516C52.1175 323.797 56.1804 332.507 60.1135 340.931C61.6452 344.202 63.2158 347.59 64.6177 350.965C65.3965 352.834 66.1623 354.768 66.9022 356.624C70.6276 365.983 74.4958 375.667 81.7129 383.039C90.968 392.476 103.974 394.553 116.487 395.877L119.213 396.163C132.064 397.513 144.214 398.785 156.675 402.289C158.557 402.822 160.426 403.393 162.412 404.003C172.148 406.962 182.207 410.039 191.787 407.806C203.119 405.171 210.544 395.098 217.099 386.181L217.501 385.648C225.666 374.55 234.051 364.036 246.642 357.338C253.301 353.795 260.518 351.38 267.489 349.057C273.174 347.162 279.028 345.201 284.545 342.644C286.103 341.917 287.673 341.178 289.231 340.451C300.108 335.336 310.389 330.508 321.993 327.392C332.573 324.55 342.905 323.485 353.86 322.369C356.08 322.148 358.287 321.915 360.532 321.668C365.66 321.11 370.242 320.214 374.369 318.968L371.747 321.59C368.347 322.447 364.673 323.083 360.74 323.511C358.494 323.758 356.275 323.979 354.068 324.212C343.203 325.315 332.949 326.38 322.5 329.171C311.064 332.247 300.848 337.037 290.036 342.112C288.478 342.839 286.92 343.592 285.35 344.306C279.755 346.915 273.836 348.888 268.112 350.796C261.219 353.094 254.08 355.482 247.551 358.948C235.31 365.477 227.068 375.822 219.02 386.726L218.63 387.271C211.894 396.422 204.235 406.807 192.241 409.584C182.181 411.908 171.888 408.78 161.919 405.742C159.946 405.145 158.077 404.574 156.221 404.042C143.915 400.563 131.856 399.304 119.071 397.967L116.345 397.681C104.065 396.383 90.1372 394.164 80.4408 384.286C72.9381 376.653 69.0181 366.788 65.2278 357.26C64.4879 355.404 63.722 353.496 62.9432 351.627C61.5543 348.291 59.9837 344.929 58.465 341.671C54.467 333.13 50.3522 324.29 48.8984 314.736C45.0821 289.658 62.3202 272.654 80.2721 257.376L81.1418 256.636C89.9165 249.185 98.9769 241.475 105.35 231.701C110.114 224.393 112.139 216.475 114.307 208.076C115.371 203.923 116.474 199.626 117.941 195.433C120.122 189.177 126.768 174.405 141.215 172.627C152.833 171.186 164.19 179.169 167.085 190.786C168.928 198.159 167.63 205.61 166.384 212.827C165.618 217.279 164.814 221.874 164.788 226.34C164.736 237.243 169.305 248.692 177.677 258.596C191.54 275.029 215.048 281.87 233.571 274.874C245.993 270.188 255.508 259.738 263.452 250.341C272.343 239.813 281.975 228.78 293.32 219.72C301.004 213.593 309.688 208.57 318.086 203.702C321.942 201.482 325.927 199.159 329.743 196.796C342.658 188.761 353.977 180.74 364.375 172.237C369.346 168.175 374.967 163.566 375.252 158.426C375.395 155.791 374.162 153.156 371.475 150.365C364.647 143.304 354.561 138.8 341.555 136.983C338.959 136.619 336.324 136.269 333.78 135.957C323.577 134.633 313.037 133.257 302.86 130.22C291.554 126.832 278.976 121.964 264.373 115.331C249.615 108.62 238.503 100.495 230.404 90.4737C227.626 87.1507 225.484 83.7109 223.719 80.1543L225.095 78.7783C226.847 82.3999 229.002 85.9046 231.767 89.3444C239.685 99.1316 250.562 107.076 265.048 113.67C279.56 120.264 292.074 125.118 303.289 128.467C313.323 131.466 323.798 132.829 333.909 134.14C336.467 134.464 339.102 134.815 341.698 135.178C355.132 137.06 365.569 141.759 372.695 149.119C375.797 152.299 377.199 155.389 377.03 158.595Z" fill="white" fill-opacity="0.15"/>
<path d="M410.001 280.585C411.13 278.313 412.298 275.951 413.467 273.692C419.087 262.828 425.032 250.133 424.5 236.828C424.098 226.794 418.386 218.513 412.857 210.517C411.338 208.323 409.78 206.064 408.352 203.806C404.848 198.276 401.59 192.5 398.357 186.126C397.358 184.166 396.268 182.167 395.216 180.233C392.945 176.067 390.608 171.783 388.895 167.37C386.338 160.737 389.037 155.493 391.672 151.638C394.995 146.809 398.409 141.578 400.369 135.412C403.446 125.793 402.381 115.539 397.033 103.13C394.295 96.7822 391.218 90.4608 388.155 84.3081L392.218 88.3709C394.476 92.992 396.709 97.6909 398.734 102.416C404.186 115.085 405.302 126.066 402.135 136.009C400.097 142.408 396.605 147.769 393.204 152.728C389.622 157.946 388.843 162.126 390.621 166.734C392.283 171.043 394.593 175.275 396.839 179.39C397.903 181.337 399.006 183.349 400.006 185.335C403.212 191.63 406.457 197.368 409.923 202.858C411.325 205.091 412.882 207.324 414.388 209.504C420.061 217.721 425.941 226.223 426.369 236.802C426.914 250.561 420.865 263.516 415.141 274.588C413.986 276.834 412.818 279.17 411.688 281.442C411.623 281.585 411.546 281.714 411.481 281.857L407.314 286.024C408.21 284.194 409.105 282.389 410.001 280.585Z" fill="white" fill-opacity="0.15"/>
<path d="M174.224 212.204C174.99 204.922 175.769 197.394 174.458 190.034C172.433 178.689 163.386 169.2 151.418 165.851C147.225 164.67 143.032 164.345 139.06 164.813L139.58 164.294C143.435 163.917 147.485 164.281 151.548 165.41C163.697 168.811 172.861 178.442 174.925 189.956C176.249 197.381 175.457 204.948 174.692 212.256C174.224 216.773 173.744 221.459 173.757 226.041C173.822 237.815 178.975 249.121 187.919 257.052C197.096 265.19 209.297 269.059 221.408 267.644C239.646 265.528 251.523 252.379 262.997 239.684C269.189 232.843 275.562 225.769 282.896 220.486C285.077 218.902 287.232 217.241 289.309 215.631C291.671 213.814 294.112 211.919 296.604 210.153C301.017 207.038 305.612 204.053 310.077 201.171C311.648 200.145 313.219 199.146 314.776 198.108L315.672 197.523C325.576 191.046 336.778 183.712 344.463 174.366C349.006 168.811 351.096 163.112 350.343 158.336C349.759 154.688 347.565 151.586 343.827 149.145C337.219 144.849 329.25 143.265 321.526 141.721C317.321 140.89 312.972 140.02 308.948 138.722C301.458 136.321 294.163 132.972 287.115 129.74C285.35 128.935 283.597 128.117 281.832 127.338C279.002 126.066 276.082 124.807 273.278 123.587C267.554 121.108 261.634 118.538 255.975 115.682C240.074 107.647 228.262 97.6521 219.305 84.5938L219.643 84.2563C228.547 97.2886 240.334 107.258 256.183 115.267C261.842 118.122 267.748 120.679 273.473 123.159C276.276 124.379 279.184 125.625 282.027 126.91C283.779 127.702 285.544 128.507 287.31 129.311C294.358 132.543 301.64 135.879 309.091 138.268C313.102 139.553 317.437 140.41 321.617 141.24C329.379 142.798 337.401 144.382 344.073 148.743C347.941 151.261 350.2 154.454 350.797 158.245C351.576 163.177 349.447 168.992 344.813 174.639C337.103 184.037 325.849 191.397 315.919 197.9L315.023 198.484C313.452 199.509 311.882 200.535 310.311 201.534C305.872 204.416 301.264 207.389 296.876 210.504C294.384 212.269 291.931 214.151 289.594 215.969C287.517 217.578 285.363 219.24 283.169 220.836C275.887 226.093 269.514 233.142 263.361 239.969C251.821 252.729 239.892 265.93 221.486 268.085C209.259 269.513 196.914 265.606 187.633 257.363C178.599 249.341 173.368 237.906 173.303 226.002C173.264 221.42 173.757 216.747 174.224 212.204Z" fill="white" fill-opacity="0.15"/>
<path d="M183.259 208.7C183.389 204.208 183.531 199.548 183.246 195.005C182.389 181.038 176.444 170.446 165.58 163.528C159.855 159.88 153.741 157.349 147.809 156.064L148.199 155.674C154.092 156.999 160.154 159.53 165.839 163.138C176.834 170.135 182.843 180.844 183.713 194.979C183.999 199.548 183.856 204.208 183.713 208.713C183.492 216.098 183.272 223.744 184.881 231.117C187.555 243.266 195.967 252.171 207.402 254.936C221.175 258.272 233.052 252.547 240.58 247.148C247.953 241.877 254.768 235.53 261.362 229.403C264.958 226.067 268.67 222.615 272.421 219.382C279.405 213.359 286.92 207.843 294.203 202.482C298.356 199.444 302.64 196.277 306.794 193.058L306.832 193.019C313.92 187.541 321.228 181.869 325.888 174.353C328.211 170.602 329.133 167.136 328.653 164.06C327.77 158.374 322.188 155.129 316.529 152.3C311.012 149.535 305.457 146.627 300.083 143.797C292.736 139.955 285.155 135.983 277.588 132.31C273.862 130.505 269.994 128.766 266.256 127.079C257.221 123.003 247.875 118.797 239.477 113.28C230.001 107.076 221.525 99.0928 214.282 89.5912L214.607 89.2667C221.824 98.7683 230.261 106.712 239.711 112.943C248.07 118.447 257.403 122.639 266.424 126.702C270.163 128.39 274.031 130.129 277.769 131.946C285.363 135.62 292.943 139.592 300.29 143.434C305.664 146.238 311.207 149.158 316.724 151.923C320.968 154.065 328.094 157.635 329.094 164.034C329.587 167.227 328.64 170.797 326.264 174.626C324.408 177.65 322.097 180.376 319.579 182.894C315.763 186.711 311.389 190.099 307.118 193.409L307.079 193.448C302.925 196.667 298.629 199.821 294.488 202.871C287.219 208.219 279.703 213.736 272.733 219.746C268.982 222.978 265.269 226.431 261.687 229.754C255.08 235.894 248.265 242.241 240.866 247.537C233.259 252.989 221.253 258.765 207.312 255.39C195.694 252.573 187.153 243.539 184.44 231.221C182.805 223.796 183.038 216.111 183.259 208.7Z" fill="white" fill-opacity="0.15"/>
<path d="M189.243 187.84C187.698 175.781 181.351 165.747 170.863 158.842C167.072 156.349 161.062 152.806 153.871 150.002L154.222 149.651C161.361 152.455 167.345 155.973 171.096 158.452C181.701 165.449 188.127 175.586 189.697 187.775C190.255 192.149 190.359 196.822 190.489 201.781C190.865 216.929 191.255 232.609 204.326 241.371C217.384 250.12 233.065 240.956 245.266 231.999C249.459 228.923 253.561 225.6 257.546 222.394C259.778 220.602 262.076 218.746 264.374 216.942C266.892 214.969 269.423 213.009 271.954 211.049C280.482 204.442 289.322 197.601 297.435 190.293C308.806 180.064 312.44 171.004 308.273 163.385C305.509 158.335 300.693 154.428 295.994 150.872C295.384 150.417 294.618 149.677 293.722 148.808C291.581 146.744 288.634 143.901 286.7 144.122L286.609 144.109C284.961 143.603 283.559 142.486 282.222 141.409C281.702 140.993 281.196 140.591 280.69 140.241C278.47 138.67 275.978 137.398 273.551 136.165L272.72 135.749C268.008 133.348 263.089 131.18 258.338 129.077C256.248 128.156 254.106 127.208 252.003 126.248C239.166 120.419 227.925 112.813 218.553 103.649C215.476 100.65 212.569 97.3792 209.739 94.1601L210.063 93.8356C212.893 97.0547 215.801 100.326 218.877 103.324C228.21 112.45 239.412 120.017 252.198 125.845C254.301 126.806 256.468 127.753 258.532 128.675C263.283 130.778 268.216 132.959 272.928 135.36L273.758 135.775C276.199 137.021 278.717 138.294 280.963 139.89C281.482 140.254 282.014 140.682 282.52 141.084C283.818 142.123 285.168 143.187 286.713 143.693C288.855 143.499 291.736 146.276 294.06 148.522C294.929 149.366 295.695 150.106 296.292 150.547C301.03 154.143 305.898 158.076 308.689 163.203C312.609 170.368 309.87 178.689 300.55 188.009C299.68 188.878 298.746 189.761 297.759 190.644C289.62 197.977 280.794 204.805 272.24 211.412C269.709 213.372 267.177 215.332 264.672 217.292C262.388 219.084 260.077 220.953 257.844 222.744C253.859 225.95 249.745 229.286 245.552 232.363C234.194 240.709 217.527 250.756 204.079 241.747C190.801 232.856 190.424 217.059 190.035 201.794C189.905 196.861 189.801 192.188 189.243 187.84Z" fill="white" fill-opacity="0.15"/>
<path d="M196.356 195.498C195.577 187.398 194.785 179 191.411 171.523C186.478 160.542 175.704 153.818 164.814 148.172C162.867 147.159 160.855 146.134 158.804 145.069L160.18 143.693C162.049 144.654 163.866 145.588 165.657 146.523C176.859 152.325 187.932 159.27 193.098 170.77C196.59 178.546 197.407 187.074 198.199 195.342C198.355 197.056 198.537 198.821 198.718 200.561C200.224 214.164 203.924 223.289 209.7 227.664C213.334 230.416 217.917 231.363 223.29 230.454C236.868 228.17 249.083 218.785 259.856 210.504L260.791 209.777C262.387 208.543 264.023 207.323 265.62 206.116C271.461 201.729 277.497 197.199 282.676 192.019C285.012 189.683 287.011 187.398 288.764 185.023C293.112 179.169 294.968 173.73 294.28 168.862C293.579 163.904 290.412 159.646 286.92 155.376C278.094 147.146 268.319 140.669 257.027 135.581C255.91 135.087 254.807 134.581 253.691 134.088C244.163 129.83 234.298 125.417 225.679 118.771C219.292 113.838 213.464 108.14 207.805 102.636C206.701 101.559 205.598 100.481 204.456 99.3911L205.767 98.0801C206.883 99.1705 207.999 100.235 209.09 101.299C214.697 106.777 220.487 112.436 226.795 117.291C235.232 123.807 244.565 127.974 254.43 132.387C255.547 132.881 256.663 133.374 257.766 133.88C269.267 139.072 279.223 145.653 288.205 154.065L288.244 154.104L288.283 154.143C291.957 158.647 295.319 163.151 296.072 168.603C296.837 173.964 294.864 179.857 290.217 186.113C288.4 188.554 286.362 190.903 283.948 193.317C278.678 198.588 272.59 203.17 266.697 207.583C265.113 208.777 263.465 210.01 261.881 211.23L260.96 211.944C250.004 220.356 237.595 229.883 223.576 232.246C217.67 233.245 212.608 232.181 208.545 229.104C202.249 224.341 198.42 215.06 196.823 200.716C196.681 198.99 196.512 197.212 196.356 195.498Z" fill="white" fill-opacity="0.15"/>
<path d="M203.794 188.268C202.665 178.702 201.483 168.798 196.045 160.711C190.554 152.52 181.649 147.847 173.043 143.317C170.356 141.902 167.592 140.435 164.983 138.891L165.32 138.553C167.89 140.059 170.616 141.513 173.251 142.902C181.909 147.458 190.865 152.183 196.421 160.464C201.912 168.655 203.093 178.611 204.248 188.229C204.521 190.553 204.806 192.941 205.157 195.239C207.351 210.127 213.192 218.175 222.499 219.149C231.637 220.109 240.775 214.554 247.447 210.504C254.95 205.961 263.582 200.34 270.695 193.227C273.304 190.618 275.615 187.892 277.549 185.153C284.61 175.106 283.65 164.644 274.706 154.039C266.762 146.069 256.235 141.694 246.045 137.476C244.942 137.021 243.865 136.567 242.774 136.126C230.819 131.102 221.382 125.041 213.14 117.032L211.79 115.708C207.948 111.969 203.833 107.984 199.51 104.389L199.835 104.064C204.17 107.673 208.259 111.658 212.101 115.396L213.451 116.72C221.668 124.703 231.04 130.726 242.943 135.723C244.02 136.178 245.124 136.632 246.214 137.073C256.443 141.305 267.009 145.692 275.044 153.753C284.156 164.527 285.116 175.197 277.925 185.451C275.978 188.229 273.655 190.968 271.02 193.603C263.867 200.755 255.209 206.376 247.681 210.945C240.944 215.034 231.715 220.628 222.434 219.655C212.893 218.655 206.909 210.465 204.677 195.356C204.365 192.993 204.067 190.592 203.794 188.268Z" fill="white" fill-opacity="0.15"/>
<path d="M328.003 24.183C327.108 24.6893 326.212 25.1955 325.33 25.6888C315.906 31.0107 306.183 36.5014 295.449 39.0326C285.298 41.421 275.212 40.8888 264.503 39.3701L264.906 38.9677C275.446 40.4215 285.376 40.9278 295.332 38.5783C306.002 36.0601 315.711 30.5824 325.096 25.2993C325.94 24.8191 326.809 24.3388 327.666 23.8455L328.003 24.183Z" fill="white" fill-opacity="0.15"/>
<path d="M234.869 84.7367C232.805 81.4007 231.183 77.7273 229.975 73.898L230.339 73.5346C231.546 77.4157 233.182 81.1281 235.258 84.503C241.45 94.5888 251.107 102.299 266.554 109.516C280.249 115.916 293.32 120.679 305.418 123.691C315.361 126.157 324.992 126.573 335.208 127.001C337.843 127.118 340.582 127.235 343.294 127.377C346.111 127.546 348.967 127.754 351.732 127.949C355.6 128.234 359.598 128.546 363.531 128.688C364.284 128.714 365.076 128.753 365.88 128.805C370.982 129.078 376.758 129.376 381.132 127.287C382.327 126.715 383.404 125.975 384.313 125.067C390.764 118.616 387.947 105.259 386.441 99.8329C383.741 90.0197 379.536 80.5959 375.265 71.4447L376.226 72.4053C380.328 81.206 384.287 90.2793 386.896 99.7161C388.791 106.57 391.023 119.031 384.65 125.404C383.715 126.339 382.599 127.118 381.353 127.715C376.849 129.857 371.021 129.558 365.867 129.285C365.063 129.234 364.284 129.208 363.518 129.169C359.572 129.013 355.574 128.701 351.693 128.429C348.941 128.221 346.072 128 343.268 127.845C340.569 127.689 337.83 127.572 335.195 127.455C324.966 127.014 315.296 126.612 305.327 124.119C293.203 121.108 280.093 116.331 266.359 109.919C250.835 102.676 241.126 94.9133 234.869 84.7367Z" fill="white" fill-opacity="0.15"/>
<path d="M212.153 174.12C211.985 170.498 211.803 166.76 211.31 163.229C210.362 156.466 208.48 151.676 205.404 148.133C202.016 144.252 197.148 142.292 192.41 140.409C191.255 139.955 190.074 139.475 188.931 138.982C185.05 137.307 178.508 134.451 173.42 130.453L173.744 130.129C178.781 134.075 185.271 136.905 189.113 138.566C190.255 139.059 191.437 139.54 192.592 139.994C197.356 141.902 202.301 143.862 205.767 147.847C208.908 151.456 210.816 156.323 211.777 163.177C212.283 166.721 212.452 170.472 212.621 174.12C212.971 181.557 213.322 189.255 216.463 195.979C221.149 206.038 231.637 206.168 239.906 202.962C246.902 200.223 253.924 195.667 259.168 190.423C264.724 184.867 272.941 173.691 265.763 161.139C260.869 154.973 253.626 150.326 244.241 147.354C241.346 146.432 238.27 145.718 235.31 145.017C229.833 143.745 224.16 142.408 219.202 139.786C213.088 136.554 208.714 131.012 204.482 125.638C201.25 121.549 197.914 117.304 193.825 114.124C193.098 113.553 192.293 113.008 191.437 112.488L191.774 112.151C192.618 112.657 193.397 113.202 194.111 113.761C198.251 116.967 201.6 121.224 204.845 125.352C209.051 130.674 213.4 136.191 219.422 139.384C224.329 141.98 229.975 143.291 235.427 144.589C238.413 145.29 241.502 146.017 244.397 146.939C253.872 149.95 261.18 154.636 266.152 160.905C273.512 173.743 265.152 185.14 259.519 190.773C254.236 196.056 247.162 200.664 240.1 203.416C231.637 206.713 220.889 206.558 216.073 196.212C212.867 189.346 212.517 181.596 212.153 174.12Z" fill="white" fill-opacity="0.15"/>
<path d="M338.712 34.8914C338.219 34.8395 337.713 34.8005 337.194 34.8005C331.002 34.8135 325.096 36.9812 319.372 39.0711C318.58 39.3696 317.788 39.6422 316.996 39.9408C307.053 43.5234 293.748 47.7161 278.912 48.5338C276.354 48.6766 273.693 48.6377 270.864 48.6117C265.139 48.5468 259.285 48.5079 254.028 49.8189L254.651 49.1958C259.765 48.0276 265.36 48.0925 270.864 48.1444C273.68 48.1834 276.341 48.1963 278.873 48.0536C293.631 47.2358 306.91 43.0431 316.827 39.4865C317.619 39.2139 318.411 38.9153 319.203 38.6168C324.953 36.501 330.911 34.3332 337.181 34.3203C337.518 34.3203 337.869 34.3332 338.206 34.3592L338.725 34.8784L338.712 34.8914Z" fill="white" fill-opacity="0.15"/>
<path d="M241.541 81.3615C239.153 76.5847 237.893 70.6527 238.724 65.149L239.295 64.5778C238.27 70.1724 239.529 76.2602 241.956 81.1538C246.292 89.9026 254.236 97.1976 266.204 103.454C277.354 109.282 290.516 114.111 304.314 117.421C316.464 120.329 328.172 120.329 342.009 119.446C342.619 119.407 343.255 119.368 343.917 119.329C352.783 118.797 364.92 118.057 371.189 111.788C372.176 110.801 373.007 109.685 373.617 108.478C377.861 100.235 375.148 90.331 371.592 80.8553C368.217 71.8209 363.635 63.2928 358.832 55.0113L360.091 56.2703C364.595 64.0975 368.84 72.1843 372.033 80.6995C375.629 90.2661 378.355 100.287 374.032 108.685C373.383 109.931 372.539 111.087 371.514 112.112C365.115 118.511 352.887 119.238 343.943 119.771C343.281 119.81 342.645 119.848 342.035 119.887C328.159 120.783 316.399 120.783 304.21 117.862C290.386 114.552 277.159 109.711 265.996 103.87C253.924 97.5611 245.915 90.2012 241.541 81.3615Z" fill="white" fill-opacity="0.15"/>
<path d="M358.923 103.104C361.934 100.092 363.557 96.3149 363.712 91.9015C364.141 79.7908 357.443 68.8353 350.148 58.8144C349.019 57.5813 348.006 56.5688 347.046 55.6602C343.554 52.3762 337.881 48.3652 330.859 47.9369C325.875 47.6253 320.903 48.8325 316.087 50.0137C315.347 50.1825 314.608 50.3772 313.868 50.5459C301.679 53.4146 288.543 56.2963 275.121 57.9058C265.983 58.9962 259.415 61.4884 255.586 65.3176C252.574 68.3291 251.25 72.1973 251.665 76.7923C252.587 87.0598 263.023 94.0174 270.773 98.3658C292.723 110.632 316.568 115.396 337.907 111.788C344.294 110.671 353.432 108.594 358.923 103.104ZM255.91 65.6162C259.661 61.8649 266.152 59.3986 275.173 58.3212C288.621 56.7116 301.757 53.83 313.972 50.9613C314.711 50.7926 315.438 50.6108 316.191 50.4291C320.968 49.2609 325.914 48.0537 330.82 48.3652C337.713 48.7936 343.268 52.7396 346.721 55.9847C347.669 56.8804 348.681 57.8928 349.784 59.1C357.015 69.03 363.674 79.8946 363.245 91.8756C363.089 96.1851 361.532 99.8456 358.598 102.779C353.198 108.179 344.151 110.217 337.83 111.294C316.607 114.89 292.865 110.126 271.006 97.9245C263.348 93.6409 253.041 86.7873 252.146 76.7274C251.717 72.2752 252.989 68.5368 255.91 65.6162Z" fill="white" fill-opacity="0.15"/>
<path d="M386.026 303.443C386.636 302.833 387.246 302.197 387.805 301.535C395.541 292.682 401.577 280.805 405.769 266.202C413.739 238.476 400.811 212.593 388.583 195.771C380.548 186.23 369.956 187.398 362.48 190.046C353.64 193.175 345.242 197.912 337.103 202.494C333.728 204.39 330.249 206.363 326.81 208.167C315.945 213.865 303.341 220.966 292.269 230.532C290.633 231.934 288.998 233.466 287.388 235.075C280.963 241.501 275.55 248.653 270.319 255.571C266.074 261.192 260.778 268.201 254.768 274.211C244.566 284.414 234.376 289.463 223.654 289.645C212.102 289.853 199.147 286.166 188.088 279.572C175.198 271.875 166.255 259.141 159.92 248.912C152.469 236.919 149.886 226.599 151.989 217.357C152.288 216.046 152.664 214.657 153.054 213.203C154.936 206.103 157.078 198.068 153.196 191.851C150.003 186.736 144.227 185.14 138.801 187.892C137.49 188.554 136.283 189.449 135.218 190.514C132.7 193.032 130.857 196.64 129.546 201.56C128.884 204.065 128.417 206.661 127.975 209.179C127.287 213.035 126.587 217.007 125.12 220.732C123.173 225.639 120.096 230.48 115.683 235.569C114.177 237.308 112.568 239.021 110.776 240.813C105.766 245.823 100.119 250.561 94.6806 255.143C89.1899 259.751 83.5175 264.515 78.4421 269.59C70.6149 277.417 65.4098 284.777 62.0738 292.76C58.1148 302.223 57.9461 313.14 61.5806 325.237C65.9031 339.607 71.0173 352.873 76.7677 364.672C83.18 377.86 92.7206 386.154 105.065 389.309C114.346 391.684 124.029 392.333 133.375 392.956C136.685 393.177 140.125 393.398 143.474 393.709C146.693 393.995 149.99 394.436 153.157 394.851C161.439 395.942 169.993 397.071 178.391 395.838C191.255 393.93 201.081 385.376 207.351 379.106C208.285 378.171 209.233 377.198 210.232 376.147C212.569 373.654 214.892 370.993 217.125 368.423C220.188 364.918 223.356 361.284 226.692 357.948C231.014 353.626 234.934 350.484 239.049 348.005C247.045 343.202 256.274 341.632 265.204 340.1C268.709 339.503 272.331 338.893 275.822 338.075C283.611 336.284 291.295 333.428 298.707 330.663C303.912 328.729 309.299 326.717 314.673 325.108C324.746 322.07 335.221 320.474 345.346 318.942C348.318 318.488 351.381 318.02 354.393 317.527C368.749 315.139 378.796 310.673 386.026 303.443ZM287.712 235.4C289.322 233.79 290.945 232.272 292.58 230.87C303.613 221.342 316.192 214.242 327.043 208.556C330.483 206.752 333.975 204.792 337.35 202.897C345.462 198.315 353.874 193.59 362.648 190.475C369.982 187.866 380.38 186.736 388.22 196.056C400.383 212.788 413.246 238.528 405.328 266.073C401.161 280.598 395.138 292.436 387.454 301.237C386.883 301.886 386.299 302.522 385.702 303.119C378.536 310.284 368.568 314.723 354.315 317.06C351.304 317.553 348.24 318.02 345.268 318.475C335.117 320.032 324.629 321.616 314.53 324.653C309.143 326.276 303.743 328.275 298.525 330.222C291.126 332.974 283.468 335.829 275.693 337.608C272.214 338.412 268.592 339.023 265.101 339.633C256.131 341.177 246.85 342.748 238.789 347.59C234.649 350.069 230.702 353.262 226.354 357.611C223.005 360.959 219.838 364.594 216.774 368.099C214.529 370.656 212.231 373.317 209.882 375.796C208.882 376.848 207.948 377.834 207.013 378.769C200.783 384.999 191.047 393.488 178.314 395.371C169.98 396.617 161.452 395.487 153.209 394.384C150.029 393.956 146.732 393.54 143.5 393.242C140.138 392.943 136.711 392.71 133.375 392.489C124.029 391.866 114.372 391.217 105.13 388.854C92.9153 385.726 83.5045 377.509 77.1441 364.451C71.4068 352.665 66.3055 339.438 61.983 325.095C58.3744 313.101 58.5432 302.288 62.4503 292.929C65.7732 285.011 70.9394 277.69 78.7147 269.915C83.7771 264.852 89.4495 260.089 94.9143 255.481C100.366 250.886 106.013 246.148 111.036 241.124C112.84 239.32 114.463 237.594 115.969 235.854C120.408 230.74 123.523 225.833 125.483 220.888C126.963 217.123 127.677 213.112 128.352 209.244C128.793 206.752 129.26 204.156 129.91 201.664C131.195 196.822 133.012 193.265 135.465 190.812C136.504 189.774 137.672 188.917 138.931 188.281C144.11 185.646 149.653 187.165 152.716 192.071C156.493 198.107 154.391 206.051 152.521 213.061C152.132 214.514 151.769 215.916 151.47 217.227C149.328 226.586 151.95 237.022 159.453 249.12C165.826 259.388 174.809 272.186 187.776 279.936C198.913 286.582 211.959 290.281 223.602 290.086C234.454 289.905 244.747 284.803 255.041 274.51C261.064 268.487 266.373 261.465 270.63 255.831C275.9 248.951 281.3 241.812 287.712 235.4Z" fill="white" fill-opacity="0.15"/>
<path d="M348.02 97.6257C349.811 95.8344 351.174 93.7705 352.095 91.4729C355.392 83.1655 350.083 73.8845 346.618 69.0947L346.54 68.9909C346.267 68.6923 345.982 68.4067 345.696 68.0952C342.295 64.4866 338.466 60.3978 333.235 59.2166C327.822 57.9835 323.058 57.6589 318.229 58.2041C311.7 58.944 305.249 60.4887 299.005 61.9555C295.968 62.6824 292.814 63.4223 289.698 64.0713C289.153 64.1751 288.582 64.3049 287.972 64.4217C282.3 65.551 273.746 67.2515 269.176 71.8206C267.723 73.2744 266.749 74.9489 266.269 76.7791C265.062 81.491 267.969 86.5014 274.927 91.6676C289.101 102.182 308.909 107.893 325.369 106.232C335.74 105.206 343.347 102.299 348.02 97.6257ZM345.151 70.224C348.396 74.7152 353.341 83.3212 350.369 90.785C349.551 92.8489 348.318 94.7051 346.708 96.3146C342.347 100.676 335.104 103.402 325.2 104.401C309.169 106.024 289.867 100.455 276.056 90.2009C271.734 86.9947 266.84 82.153 268.086 77.2724C268.475 75.7666 269.28 74.3647 270.5 73.1446C274.667 68.9779 282.897 67.3423 288.349 66.252C288.959 66.1352 289.543 66.0183 290.101 65.9015C293.242 65.2525 296.396 64.5126 299.447 63.7727C305.638 62.3059 312.038 60.7872 318.45 60.0603C323.045 59.5411 327.614 59.8526 332.832 61.0468C337.505 62.1112 340.971 65.8107 344.346 69.3933C344.619 69.6658 344.878 69.9514 345.151 70.224Z" fill="white" fill-opacity="0.15"/>
<path d="M378.64 298.706C384.183 293.163 388.492 285.998 391.127 277.989C394.606 267.397 395.476 255.468 393.619 243.513C391.802 231.831 387.519 220.616 381.197 211.101L381.158 211.036C375.538 203.988 366.828 202.054 355.275 205.273C344.865 208.18 333.819 212.555 321.513 218.681C310.09 224.367 300.783 230.87 293.099 238.554C292.061 239.593 291.022 240.683 290.049 241.761C283.558 248.952 277.86 257.039 272.343 264.866C270.202 267.916 267.982 271.07 265.749 274.108C264.386 275.964 263.036 277.885 261.712 279.754C257.221 286.089 252.587 292.618 247.122 298.083C245.915 299.29 244.695 300.406 243.475 301.445C239.84 304.534 235.375 307.571 229.716 306.819C225.367 306.234 221.084 304.443 216.93 302.704C216.138 302.379 215.372 302.055 214.593 301.743C212.893 301.055 211.167 300.367 209.427 299.666C199.601 295.759 189.463 291.722 181.078 285.492C172.667 279.235 165.891 270.408 159.31 261.854C157.856 259.959 156.35 258.012 154.883 256.156C147.316 246.563 138.1 236.802 124.782 242.462C112.697 247.589 102.91 256.675 93.4212 265.463L92.3698 266.436C90.3708 268.28 88.6574 269.941 87.1127 271.486C77.8706 280.728 72.4578 288.737 69.5762 297.486C65.7469 309.077 68.4209 321.331 71.5622 331.793C72.1333 333.714 72.7044 335.713 73.2626 337.621C76.2221 347.928 79.2725 358.61 85.1916 367.619C91.6039 377.38 102.209 383.624 115.851 385.688C121.913 386.609 128.131 386.804 134.141 387.025C134.946 387.051 135.737 387.089 136.529 387.102C138.632 387.18 140.774 387.349 142.864 387.518C146.719 387.842 150.717 388.154 154.65 387.881C156.753 387.725 158.92 387.687 161.01 387.622C165.32 387.518 169.785 387.414 174.146 386.401C180.247 384.974 186.27 382.248 191.982 378.276C195.499 375.848 198.874 372.993 202.275 369.592C209.194 362.673 215.035 354.651 220.681 346.876C221.616 345.578 222.524 344.254 223.498 342.839C226.042 339.153 228.638 335.337 231.715 332.26C236.206 327.769 240.697 325.848 245.863 326.237C249.056 326.471 252.263 327.055 255.378 327.626C258.896 328.262 262.517 328.924 266.165 329.093C272.759 329.404 279.223 328.807 285.363 327.341C290.386 326.133 295.474 324.809 300.381 323.537C309.299 321.214 318.528 318.812 327.718 317.021C330.625 316.45 333.65 315.944 336.583 315.45C346.903 313.698 357.586 311.894 366.997 307.156C371.254 305.001 375.187 302.159 378.64 298.706ZM379.678 212.152C392.321 231.208 396.125 256.818 389.375 277.405C386.831 285.141 382.664 292.06 377.329 297.395C374.019 300.705 370.242 303.444 366.114 305.52C356.95 310.141 346.423 311.92 336.233 313.646C333.299 314.139 330.262 314.659 327.328 315.23C318.099 317.034 308.844 319.435 299.888 321.772C294.981 323.044 289.906 324.381 284.908 325.562C278.937 326.99 272.642 327.574 266.23 327.263C262.699 327.107 259.129 326.445 255.676 325.822C252.509 325.251 249.251 324.667 245.967 324.42C240.308 324.005 235.206 326.146 230.378 330.975C227.184 334.168 224.523 338.049 221.953 341.814C220.993 343.216 220.071 344.553 219.15 345.812C213.542 353.522 207.74 361.505 200.925 368.32C197.589 371.656 194.305 374.421 190.891 376.796C185.349 380.625 179.559 383.273 173.679 384.636C169.512 385.61 165.138 385.701 160.932 385.804C158.817 385.843 156.636 385.895 154.481 386.051C150.704 386.324 146.771 385.999 142.98 385.688C140.878 385.506 138.71 385.337 136.555 385.259C135.75 385.233 134.946 385.207 134.154 385.168C128.196 384.974 122.043 384.766 116.085 383.87C106.947 382.494 94.4336 378.367 86.7103 366.619C80.96 357.858 77.9355 347.33 75.0149 337.141C74.4568 335.207 73.8856 333.208 73.3145 331.287C70.2771 321.11 67.655 309.194 71.3285 298.096C74.1193 289.645 79.3893 281.857 88.4107 272.836C89.9424 271.304 91.6558 269.669 93.6289 267.825L94.6803 266.852C104.039 258.168 113.723 249.185 125.509 244.201C137.632 239.061 145.94 247.861 153.43 257.324C154.896 259.18 156.389 261.114 157.843 263.01C164.489 271.655 171.356 280.598 179.975 287.01C188.555 293.384 198.822 297.473 208.739 301.419C210.466 302.107 212.192 302.795 213.892 303.483C214.658 303.807 215.437 304.119 216.203 304.443C220.474 306.221 224.874 308.078 229.469 308.675C235.829 309.531 240.723 306.221 244.656 302.885C245.902 301.821 247.174 300.653 248.407 299.42C253.989 293.838 258.662 287.244 263.205 280.858C264.516 279.001 265.892 277.08 267.242 275.237C269.475 272.174 271.694 269.02 273.862 265.969C279.34 258.181 285.012 250.146 291.425 243.033C292.385 241.968 293.385 240.917 294.41 239.891C301.965 232.337 311.103 225.951 322.344 220.343C334.545 214.268 345.475 209.933 355.781 207.051C366.516 204.053 374.564 205.766 379.678 212.152Z" fill="white" fill-opacity="0.15"/>
<path d="M191.514 360.934C197.732 354.716 202.483 347.603 204.91 340.918C208 332.377 207.441 324.628 203.262 317.878C198.173 311.492 191.424 306.922 184.92 302.496C181.377 300.095 177.703 297.589 174.341 294.851C167.63 289.36 162.542 282.922 157.168 276.12C155.896 274.51 154.572 272.849 153.248 271.213C148.147 264.944 141.072 257.61 131.493 256.545C123.692 255.676 115.618 258.843 106.765 266.216C103.507 268.929 100.677 271.499 98.1332 274.043C92.0584 280.118 87.684 285.998 84.7244 292.021C79.5972 302.496 78.2342 314.711 80.7784 327.38C83.1408 339.14 86.4508 352.497 93.1877 362.349C99.9505 372.253 110.426 377.406 126.171 378.535C144.629 379.859 171.278 379.691 189.515 362.855C190.19 362.232 190.852 361.596 191.514 360.934ZM98.4577 274.368C101.002 271.823 103.806 269.279 107.064 266.566C115.8 259.284 123.77 256.143 131.441 256.987C140.852 258.038 147.848 265.294 152.898 271.486C154.222 273.121 155.546 274.783 156.818 276.392C162.218 283.22 167.319 289.671 174.069 295.201C177.431 297.966 181.117 300.458 184.674 302.873C191.164 307.286 197.875 311.842 202.898 318.138C213.815 335.752 196.707 355.093 191.19 360.609C190.541 361.258 189.879 361.895 189.217 362.505C171.096 379.223 144.577 379.392 126.197 378.068C110.607 376.939 100.236 371.863 93.5771 362.089C86.8922 352.289 83.5951 338.997 81.2327 327.289C78.7145 314.75 80.0774 302.613 85.1398 292.229C88.0604 286.245 92.4218 280.403 98.4577 274.368Z" fill="white" fill-opacity="0.15"/>
<path d="M333.676 90.0065C336.142 87.5402 338.388 83.3735 335.078 77.5712C327.199 67.2518 312.349 70.6527 306.326 72.5997C303.808 73.4045 297.123 75.5723 293.852 78.8433C291.879 80.8163 291.425 82.8802 292.502 84.996C295.54 90.9151 304.898 93.8876 307.689 94.6535C313.102 96.1462 318.671 96.289 323.772 95.1078C327.77 94.1732 331.366 92.317 333.676 90.0065ZM294.177 79.1678C297.37 75.9746 303.977 73.8329 306.469 73.0281C312.401 71.12 327.004 67.758 334.676 77.8179C337.817 83.3475 335.688 87.3195 333.339 89.669C331.093 91.9146 327.562 93.7319 323.668 94.6405C318.632 95.8087 313.154 95.653 307.806 94.1992C305.054 93.4463 295.864 90.5387 292.905 84.7754C291.944 82.8802 292.359 80.9851 294.177 79.1678Z" fill="white" fill-opacity="0.15"/>
<path d="M179.365 355.015C179.378 355.002 179.365 355.015 179.365 355.015C184.245 350.134 187.27 344.202 188.334 337.4C189.71 328.678 185.414 320.123 175.224 311.284C165.19 302.574 157.181 292.644 148.705 282.117C147.861 281.065 147.004 280.001 146.148 278.963C139.009 270.941 131.428 267.721 123.614 269.383C117.734 270.642 111.983 274.03 106.545 279.469C104.104 281.909 101.82 284.687 99.7298 287.711C93.0189 297.512 89.7868 309.441 90.4099 322.213C91.0849 336.232 95.0439 349.07 101.223 357.455C107.453 365.866 117.266 369.89 132.168 370.098C139.619 370.202 164.943 369.436 179.365 355.015ZM106.895 279.793C112.269 274.419 117.928 271.07 123.731 269.837C131.363 268.202 138.788 271.369 145.81 279.248C146.654 280.3 147.498 281.351 148.354 282.415C156.467 292.475 164.866 302.898 174.925 311.634C184.998 320.357 189.23 328.768 187.88 337.31C186.828 344.02 183.843 349.862 179.027 354.677C164.723 368.982 139.567 369.735 132.194 369.631C117.461 369.41 107.752 365.464 101.625 357.183C95.4852 348.862 91.5651 336.115 90.8901 322.2C90.2801 309.518 93.4603 297.693 100.119 287.971C102.196 284.959 104.481 282.208 106.895 279.793Z" fill="white" fill-opacity="0.15"/>
<path d="M247.603 184.231C251.951 179.883 254.911 172.925 251.73 167.175C249.329 163.787 245.279 161.555 240.879 161.178C236.699 160.815 232.792 162.126 230.131 164.787C229.158 165.76 228.353 166.903 227.756 168.201C226.055 171.848 225.173 178.079 227.275 183.089C228.431 185.854 230.391 187.814 232.922 188.736C237.504 190.41 243.15 188.684 247.603 184.231ZM230.456 165.111C233.026 162.541 236.803 161.282 240.84 161.633C245.097 161.996 249.018 164.177 251.328 167.422C254.378 172.938 251.484 179.675 247.265 183.894C242.943 188.216 237.491 189.904 233.052 188.294C230.598 187.399 228.794 185.594 227.678 182.894C225.64 178.001 226.497 171.952 228.158 168.369C228.742 167.162 229.521 166.046 230.456 165.111Z" fill="white" fill-opacity="0.15"/>
<path d="M161.01 348.68C161.023 348.667 161.023 348.667 161.01 348.68C162.308 347.382 163.425 345.98 164.346 344.513C170.097 335.388 165.138 326.016 161.672 321.253C158.401 316.761 154.78 312.413 151.275 308.207C148.134 304.443 144.889 300.549 141.903 296.577L141.851 296.499C137.581 291.839 130.428 284.064 121.861 287.698C119.252 288.802 116.864 290.437 114.748 292.553C109.218 298.083 106.648 305.741 105.48 311.193C102.676 324.173 102.508 348.148 119.616 355.729C132.505 361.453 151.47 358.221 161.01 348.68ZM140.462 297.732C143.461 301.743 146.706 305.637 149.86 309.414C153.352 313.581 156.947 317.904 160.18 322.356C163.373 326.743 167.955 335.349 162.776 343.54C161.919 344.89 160.881 346.188 159.686 347.382C150.626 356.443 132.609 359.506 120.343 354.067C104.338 346.967 104.61 324.056 107.284 311.621C108.414 306.416 110.841 299.108 116.059 293.89C118.006 291.943 120.2 290.45 122.588 289.438C129.377 286.543 135.374 292.176 140.462 297.732Z" fill="white" fill-opacity="0.15"/>
<path d="M449.124 232.402C451.318 226.158 451.382 221.498 449.293 217.747C446.813 213.269 442.192 210.543 437.714 207.908C437.221 207.622 436.741 207.324 436.247 207.038C422.592 198.86 414.297 189.398 410.897 178.131C407.612 167.24 409.754 156.298 411.857 145.731C413.973 134.997 416.167 123.872 412.61 112.839C411.883 110.555 410.974 108.322 409.962 106.141L410.884 107.063C411.688 108.906 412.441 110.775 413.051 112.683C416.647 123.859 414.44 135.023 412.311 145.822C410.235 156.336 408.08 167.214 411.351 177.988C414.726 189.151 422.942 198.51 436.494 206.636C436.974 206.934 437.454 207.207 437.948 207.492C442.257 210.036 447.151 212.931 449.695 217.5C452.525 222.589 450.967 228.508 449.552 232.519C446.93 239.969 443.374 247.031 439.492 253.742L438.207 255.027C442.426 247.9 446.32 240.372 449.124 232.402Z" fill="white" fill-opacity="0.15"/>
<path d="M424.824 170.901C421.203 160.789 422.981 150.236 424.708 140.02C425.655 134.374 426.629 128.597 426.694 122.873L427.148 123.327C427.044 128.935 426.097 134.581 425.162 140.111C423.448 150.262 421.67 160.763 425.253 170.758C432.665 191.436 459.988 189.969 478.07 188.995L480.264 188.878C484.366 188.671 488.545 188.593 492.751 188.93L493.27 189.45C488.922 189.047 484.547 189.112 480.303 189.333L478.109 189.45C459.872 190.423 432.353 191.903 424.824 170.901Z" fill="white" fill-opacity="0.15"/>
<path d="M368.009 293.5C369.073 292.436 370.073 291.281 370.969 290.1C385.234 271.239 375.81 245.849 368.944 232.389C363.206 223.432 352.134 221.005 336.025 225.146C322.019 228.741 310.415 234.946 301.549 243.578C290.607 254.235 282.481 268.15 277.367 277.599C277.003 278.274 276.601 278.988 276.186 279.767C271.214 288.737 263.724 302.275 271.694 310.609C277.899 317.099 289.646 315.814 298.2 314.866C298.875 314.788 299.537 314.723 300.173 314.659C309.48 313.685 318.748 311.478 327.731 309.35C331.21 308.519 334.818 307.662 338.362 306.896C349.148 304.547 360.208 301.302 368.009 293.5ZM301.043 244.733C301.316 244.46 301.588 244.188 301.874 243.902C310.688 235.322 322.227 229.157 336.155 225.587C352.043 221.511 362.947 223.873 368.541 232.609C375.356 245.94 384.702 271.148 370.592 289.801C369.697 290.982 368.723 292.112 367.672 293.163C359.961 300.873 348.98 304.092 338.258 306.429C334.714 307.195 331.106 308.052 327.614 308.895C318.657 311.024 309.389 313.231 300.121 314.191C299.485 314.256 298.836 314.334 298.148 314.399C289.672 315.321 278.081 316.606 272.032 310.271C264.308 302.184 271.694 288.828 276.601 279.975C277.029 279.209 277.432 278.495 277.795 277.82C282.741 268.643 290.555 255.221 301.043 244.733Z" fill="white" fill-opacity="0.15"/>
<path d="M440.284 167.668C434.651 161.386 434.079 153.234 434.209 146.822C434.313 141.993 434.858 137.034 435.832 132.011L436.234 132.413C435.3 137.294 434.78 142.123 434.664 146.835C434.534 153.169 435.092 161.204 440.609 167.37C445.632 172.964 452.602 174.976 457.574 175.69C464.752 176.716 472.073 176.041 479.147 175.327L479.576 175.755C472.346 176.469 464.882 177.209 457.535 176.144C452.486 175.431 445.398 173.38 440.284 167.668Z" fill="white" fill-opacity="0.15"/>
<path d="M356.288 288.841C360.234 284.895 362.687 280.183 363.596 274.783C365.179 265.437 362.389 255.118 355.937 246.434C352.705 242.267 348.214 239.385 343.307 238.347C329.509 235.426 315.101 243.89 306.209 252.781C304.73 254.261 303.354 255.793 302.121 257.337C297.551 263.075 293.709 269.175 290.724 275.458C287.777 281.624 285.012 288.802 286.765 295.227C288.53 301.639 295.539 304.755 307.027 304.223C319.449 303.638 332.508 301.068 342.84 297.148C348.331 295.084 352.848 292.281 356.288 288.841ZM306.547 253.119C315.348 244.318 329.613 235.92 343.23 238.814C348.032 239.827 352.433 242.643 355.587 246.732C361.947 255.299 364.725 265.502 363.167 274.718C362.272 280.001 359.857 284.648 355.989 288.516C352.588 291.917 348.11 294.682 342.71 296.733C332.417 300.614 319.423 303.197 307.04 303.768C295.63 304.3 288.958 301.393 287.245 295.11C285.519 288.841 288.257 281.766 291.178 275.679C294.151 269.435 297.98 263.373 302.523 257.662C303.717 256.104 305.08 254.585 306.547 253.119Z" fill="white" fill-opacity="0.15"/>
<path d="M446.203 142.382C446.06 147.224 447.216 151.624 449.604 155.129C453.667 161.087 460.949 162.969 467.192 163.372L467.686 163.865C461.221 163.527 453.511 161.658 449.215 155.389C446.683 151.689 445.515 147.042 445.749 141.928L446.203 142.382Z" fill="white" fill-opacity="0.15"/>
<path d="M339.244 281.948C343.489 277.704 346.435 270.707 341.957 263.763L341.931 263.737L341.633 263.464C338.037 260.232 334.636 257.169 329.275 257.519C324.369 257.831 319.696 260.063 315.802 263.957C315.659 264.1 315.503 264.256 315.373 264.412C312.57 267.345 307.416 274.523 307.91 280.676C308.104 283.155 309.208 285.193 311.168 286.712C317.45 291.593 329.197 288.646 335.168 285.115C336.661 284.22 338.037 283.155 339.244 281.948ZM341.594 264.022C345.89 270.733 343.022 277.496 338.92 281.598C337.739 282.779 336.389 283.817 334.922 284.687C329.068 288.153 317.554 291.073 311.44 286.31C309.584 284.869 308.546 282.948 308.364 280.611C307.897 274.614 312.959 267.579 315.711 264.697C315.854 264.554 315.996 264.412 316.139 264.269C319.955 260.453 324.512 258.259 329.301 257.96C334.468 257.623 337.635 260.479 341.334 263.789L341.594 264.022Z" fill="white" fill-opacity="0.15"/>
</svg>
