<svg width="371" height="684" viewBox="0 0 371 684" fill="none" xmlns="http://www.w3.org/2000/svg">
<path d="M-247.067 203.681C-237.962 200.651 -227.126 206.74 -217.559 212.113C-198.575 222.761 -179.755 235.113 -160.031 249.83C-154.186 254.191 -148.367 258.831 -142.742 263.322C-130.593 272.986 -118.055 283.015 -104.519 290.831C-84.481 302.392 -62.4211 310.283 -41.5408 317.401C-22.389 323.892 -0.743959 332.216 14.0854 348.604C25.3173 361.033 31.989 377.249 33.4135 395.499C34.7239 412.828 31.0351 430.589 22.9564 445.464C12.6814 464.481 -2.38121 478.566 -19.4239 485.135C-26.3735 487.814 -33.8591 489.355 -41.1229 490.832C-52.3589 493.125 -63.988 495.504 -73.483 502.238C-87.9991 512.558 -92.8809 532.606 -84.6019 547.878C-74.2129 567.041 -49.5465 568.225 -39.3919 567.817C-32.3696 567.558 -25.3393 566.69 -18.5462 565.847C-5.03776 564.191 8.906 562.5 23.1288 565.419C41.9605 569.317 59.0657 578.499 75.5981 587.366L77.2199 588.236C109.986 605.84 144.83 621.348 178.88 601.64C191.974 594.057 202.654 582.837 212.982 571.979C216.989 567.756 221.149 563.406 225.389 559.317C227.735 557.049 230.187 554.762 232.537 552.56C244.389 541.464 256.645 529.963 263.463 514.795C272.179 495.356 267.644 474.617 262.27 455.061L261.094 450.802C255.56 430.725 250.322 411.745 248.25 390.984C247.942 387.846 247.699 384.706 247.446 381.366C246.16 365.017 244.859 348.111 235.873 335.05C225.252 319.595 205.769 314.379 188.531 309.789L187.496 309.498C166.039 303.775 145.329 297.377 127.871 282.424C118.636 274.516 110.767 265.106 103.18 256.013C96.9915 248.597 90.6064 240.965 83.5238 234.191C81.5167 232.281 79.4824 230.36 77.4753 228.45C63.4018 215.136 50.108 202.55 38.6065 186.969C28.1173 172.766 20.4417 157.888 12.3217 142.105C10.6848 138.904 9.03602 135.73 7.34487 132.505C3.49104 125.14 -0.548539 118.791 -4.84675 113.33L0.630349 115.722C3.91661 120.321 7.03208 125.459 9.98861 131.109C11.6798 134.334 13.3167 137.535 14.9654 140.709C23.0125 156.363 30.6423 171.125 40.9772 185.163C52.321 200.514 65.5182 213.025 79.4951 226.265C81.5022 228.175 83.5483 230.069 85.5436 232.006C92.7499 238.866 99.1927 246.588 105.424 254.055C112.926 263.047 120.71 272.355 129.752 280.113C146.75 294.64 167.123 300.923 188.219 306.585L189.267 306.849C206.962 311.575 227.05 316.958 238.274 333.322C247.679 347.051 249.04 364.337 250.347 381.083C250.611 384.395 250.854 387.536 251.147 390.635C253.166 411.147 258.371 429.983 263.886 449.955L265.061 454.214C270.337 473.404 275.2 495.61 266.081 515.971C259.041 531.72 246.544 543.406 234.477 554.698C232.127 556.9 229.714 559.172 227.367 561.441C223.178 565.487 219.057 569.822 215.062 574.017C204.597 585.041 193.753 596.416 180.272 604.218C144.885 624.698 109.228 608.834 75.7409 590.883L74.119 590.013C57.7764 581.229 40.8763 572.169 22.4598 568.355C8.69105 565.506 -4.38194 567.125 -18.2597 568.813C-25.1189 569.659 -32.2152 570.531 -39.3696 570.797C-50.041 571.205 -76.117 569.922 -87.2846 549.289C-96.281 532.703 -90.9835 510.964 -75.2533 499.786C-65.274 492.682 -53.3298 490.247 -41.7668 487.871C-34.6352 486.401 -27.2665 484.906 -20.5506 482.318C-4.15833 475.981 10.3336 462.39 20.2702 444C36.7743 413.53 33.2103 374.23 11.8148 350.551C-2.5247 334.667 -23.802 326.536 -42.5776 320.144C-63.6053 312.994 -85.8279 305.032 -106.098 293.338C-119.812 285.411 -132.459 275.336 -144.704 265.597C-150.302 261.117 -156.133 256.504 -161.923 252.168C-181.578 237.513 -200.275 225.247 -219.15 214.647C-228.171 209.577 -238.392 203.854 -246.274 206.449C-250.312 207.785 -253.54 211.186 -256.147 216.859C-262.727 231.259 -263.553 249.043 -258.628 269.63C-257.646 273.739 -256.622 277.899 -255.593 281.9C-251.578 297.989 -247.442 314.615 -246.013 331.673C-244.446 350.631 -244.351 372.37 -245.714 398.185C-247.102 424.279 -252.758 445.733 -263.031 463.783C-266.383 469.906 -270.285 475.143 -274.583 479.885L-277.457 478.629C-273.054 473.869 -269.062 468.574 -265.527 462.402C-255.499 444.762 -249.977 423.766 -248.604 398.149C-247.246 372.493 -247.322 350.86 -248.895 332.061C-250.298 315.24 -254.415 298.72 -258.396 282.775C-259.414 278.747 -260.438 274.586 -261.42 270.477C-266.499 249.21 -265.587 230.785 -258.735 215.761C-255.788 209.235 -251.977 205.314 -247.067 203.681Z" fill="#02B0AF" fill-opacity="0.2"/>
<path d="M-47.3137 476.473C-58.6915 479.608 -70.4471 482.868 -80.72 489.165C-96.5528 498.877 -105.469 518.036 -103.454 537.965C-102.76 544.951 -100.78 551.434 -97.7426 557.119L-98.8272 556.645C-101.66 551.082 -103.497 544.791 -104.193 538.03C-106.237 517.797 -97.1749 498.38 -81.1118 488.509C-70.7491 482.155 -58.9275 478.891 -47.5107 475.741C-40.4573 473.785 -33.1431 471.749 -26.2749 469.034C-8.64628 462.011 5.28776 447.627 11.9277 429.54C18.7418 410.981 17.3684 390.396 8.12074 373.055C-5.78301 346.933 -32.5016 336.846 -58.3017 327.095C-72.2092 321.828 -86.5743 316.426 -98.8163 308.529C-102.476 306.188 -106.236 303.932 -109.873 301.762C-113.99 299.286 -118.27 296.739 -122.385 294.038C-129.656 289.248 -136.839 284.109 -143.79 279.104C-146.253 277.35 -148.677 275.581 -151.151 273.855L-152.555 272.854C-168.101 261.803 -185.696 249.308 -204.241 243.274C-215.25 239.725 -225.031 239.941 -231.756 243.881C-236.886 246.904 -240.25 252.02 -241.713 259.066C-244.274 271.508 -241.961 284.399 -239.736 296.897C-238.508 303.697 -237.255 310.734 -236.836 317.536C-236.033 330.187 -236.767 343.104 -237.471 355.583C-237.64 358.705 -237.836 361.816 -237.966 364.923C-238.211 369.918 -238.382 375.041 -238.563 379.966C-238.916 390.014 -239.291 400.408 -240.247 410.581C-242.95 439.169 -250.999 462.774 -265.325 483.896L-266.03 483.588C-251.712 462.559 -243.687 439.008 -240.992 410.514C-240.036 400.341 -239.674 389.974 -239.321 379.926C-239.139 375.001 -238.98 369.904 -238.724 364.883C-238.566 361.787 -238.397 358.665 -238.228 355.542C-237.525 343.064 -236.802 330.174 -237.602 317.589C-238.033 310.814 -239.298 303.804 -240.51 297.044C-242.739 284.479 -245.082 271.51 -242.462 258.932C-240.959 251.647 -237.496 246.379 -232.159 243.253C-225.216 239.183 -215.237 238.956 -204.038 242.588C-185.4 248.63 -167.735 261.188 -152.135 272.263L-150.732 273.263C-148.269 275.017 -145.806 276.77 -143.382 278.539C-136.446 283.506 -129.275 288.672 -122.019 293.423C-117.904 296.124 -113.637 298.698 -109.535 301.135C-105.898 303.305 -102.137 305.561 -98.4508 307.913C-86.2782 315.748 -71.9522 321.166 -58.087 326.382C-32.1513 336.192 -5.32426 346.326 8.7372 372.679C18.0731 390.187 19.4721 411.01 12.5632 429.786C5.84036 448.062 -8.24264 462.639 -26.0661 469.739C-32.919 472.493 -40.2214 474.501 -47.3137 476.473Z" fill="#02B0AF" fill-opacity="0.2"/>
<path d="M-57.8876 464.978C-64.7035 467.425 -71.7802 469.952 -78.4296 473.053C-98.8843 482.555 -111.281 497.707 -115.272 518.081C-117.378 528.817 -117.579 539.48 -116.018 549.137L-116.831 548.782C-118.311 539.16 -118.079 528.575 -116.009 517.92C-111.978 497.306 -99.4438 481.988 -78.7435 472.367C-72.0551 469.251 -64.9784 466.724 -58.1355 464.288C-46.9225 460.274 -35.32 456.108 -25.2032 449.355C-8.54451 438.195 -0.130625 420.335 -2.70919 401.548C-5.80522 378.919 -21.3822 364.464 -33.9142 356.343C-46.1597 348.38 -59.6936 341.888 -72.7665 335.597C-79.8876 332.164 -87.2528 328.625 -94.3097 324.897C-107.456 317.961 -120.155 309.928 -132.484 302.154C-139.485 297.708 -146.758 293.144 -154.032 288.804L-154.114 288.769C-166.503 281.356 -179.314 273.727 -193.333 271.155C-200.329 269.876 -206.072 270.531 -210.406 273.062C-218.418 277.731 -220.004 288.016 -220.921 298.173C-221.825 308.078 -222.92 318.125 -224.004 327.854C-225.448 341.139 -226.949 354.851 -228.009 368.368C-228.525 375.019 -228.86 381.847 -229.193 388.45C-229.994 404.404 -230.807 420.903 -234.145 436.75C-237.881 454.62 -244.874 472.035 -254.871 488.494L-255.549 488.198C-245.536 471.778 -238.579 454.444 -234.789 436.598C-231.448 420.817 -230.646 404.345 -229.857 388.418C-229.524 381.815 -229.189 374.988 -228.662 368.309C-227.616 354.753 -226.116 341.041 -224.672 327.756C-223.626 318.042 -222.504 308.007 -221.601 298.102C-220.884 290.473 -219.719 277.679 -210.705 272.415C-206.203 269.796 -200.289 269.118 -193.146 270.43C-187.515 271.436 -182.066 273.3 -176.805 275.597C-168.834 279.079 -161.176 283.65 -153.697 288.111L-153.616 288.147C-146.342 292.486 -139.081 297.078 -132.068 301.497C-119.766 309.259 -107.067 317.291 -93.9476 324.215C-86.8907 327.943 -79.5255 331.483 -72.4314 334.904C-59.3314 341.207 -45.7976 347.699 -33.4978 355.686C-20.8422 363.893 -5.11088 378.512 -1.97402 401.417C0.633539 420.507 -7.89875 438.639 -24.7877 449.956C-34.9671 456.779 -46.6357 460.949 -57.8876 464.978Z" fill="#02B0AF" fill-opacity="0.2"/>
<path d="M-92.7099 468.269C-109.897 477.681 -121.219 493.109 -125.412 512.91C-126.922 520.064 -128.704 531.167 -128.681 543.607L-129.413 543.287C-129.405 530.925 -127.647 519.876 -126.133 512.788C-121.873 492.759 -110.441 477.153 -93.0746 467.626C-86.8387 464.215 -79.8876 461.31 -72.5233 458.198C-50.0135 448.722 -26.7129 438.913 -21.2546 414.144C-15.8082 389.402 -38.7844 371.264 -59.4024 358.223C-66.4852 353.741 -73.8847 349.541 -81.0401 345.447C-85.0415 343.151 -89.1785 340.795 -93.2376 338.409C-97.6797 335.791 -102.11 333.146 -106.54 330.5C-121.472 321.59 -136.937 312.349 -152.676 304.475C-174.714 293.429 -190.448 293.305 -199.43 304.04C-205.381 311.159 -208.411 320.684 -210.984 329.828C-211.307 331.01 -211.966 332.595 -212.744 334.451C-214.582 338.879 -217.114 344.972 -215.645 347.745L-215.611 347.889C-215.401 350.66 -216.251 353.421 -217.081 356.061C-217.399 357.084 -217.705 358.081 -217.933 359.047C-218.985 363.301 -219.427 367.79 -219.85 372.157L-219.984 373.648C-220.816 382.132 -221.175 390.789 -221.535 399.155C-221.689 402.833 -221.851 406.605 -222.055 410.325C-223.249 433.018 -228.05 454.361 -236.289 473.815C-238.978 480.196 -242.176 486.483 -245.342 492.623L-246.02 492.327C-242.854 486.187 -239.656 479.9 -236.966 473.519C-228.764 454.146 -223.998 432.885 -222.774 410.27C-222.569 406.549 -222.423 402.739 -222.254 399.1C-221.893 390.734 -221.522 382.049 -220.691 373.566L-220.556 372.075C-220.122 367.68 -219.695 363.153 -218.62 358.844C-218.38 357.851 -218.05 356.8 -217.744 355.804C-216.949 353.245 -216.146 350.593 -216.295 347.977C-217.848 344.878 -215.374 338.92 -213.372 334.112C-212.617 332.311 -211.957 330.726 -211.646 329.571C-209.038 320.346 -206 310.728 -199.948 303.524C-191.502 293.426 -177.405 292.641 -157.937 301.144C-156.12 301.937 -154.246 302.82 -152.341 303.782C-136.548 311.68 -121.11 320.909 -106.163 329.858C-101.733 332.503 -97.3023 335.148 -92.8873 337.755C-88.8553 340.129 -84.6912 342.497 -80.6898 344.793C-73.5344 348.887 -66.1078 353.099 -59.0249 357.581C-39.8188 369.714 -14.9378 388.814 -20.5447 414.293C-26.0755 439.45 -49.5591 449.308 -72.2365 458.872C-79.5619 461.969 -86.513 464.874 -92.7099 468.269Z" fill="#02B0AF" fill-opacity="0.2"/>
<path d="M-35.0005 104.971C-36.2749 104.414 -37.5882 103.873 -38.91 103.425C-56.7453 97.0236 -78.1188 94.9533 -102.498 97.2525C-148.793 101.604 -180.027 136.23 -198.077 164.475C-207.667 182.145 -199.683 197.352 -191.311 207.014C-181.416 218.438 -169.366 228.254 -157.703 237.771C-152.873 241.72 -147.866 245.78 -143.135 249.88C-128.193 262.831 -110.123 277.568 -89.2542 288.555C-86.1884 290.184 -82.9278 291.738 -79.5656 293.206C-66.144 299.068 -52.2272 302.983 -38.7679 306.763C-27.8367 309.825 -14.2029 313.649 -1.64895 319.132C19.663 328.44 33.2345 340.76 39.8146 356.742C46.9224 373.956 49.0114 395.564 45.6225 416.038C41.6545 439.908 27.8076 460.82 16.1852 476.343C2.57037 494.579 -11.3953 504.526 -26.5009 506.807C-28.6438 507.131 -30.9494 507.383 -33.3601 507.654C-45.122 509.006 -58.439 510.519 -65.4859 520.001C-71.2818 527.801 -70.2796 537.408 -62.9583 543.931C-61.1936 545.509 -59.1395 546.794 -56.9161 547.765C-51.6559 550.062 -45.1566 550.705 -37.0031 549.779C-32.8543 549.298 -28.6837 548.472 -24.6453 547.653C-18.4555 546.418 -12.0828 545.133 -5.62968 545.142C2.87853 545.177 11.9537 546.946 22.1855 550.575C25.6814 551.811 29.1994 553.218 32.9412 554.853C43.4073 559.424 53.8387 565.109 63.914 570.575C74.0589 576.104 84.5445 581.813 95.1462 586.444C111.496 593.584 125.602 597.066 139.544 597.375C156.073 597.749 172.553 591.581 188.569 579.01C207.589 564.07 224.487 548.592 238.81 533.022C254.828 515.641 261.661 496.445 259.133 476.065C257.237 460.741 252.515 445.828 247.952 431.438C246.336 426.341 244.643 421.049 243.141 415.841C241.675 410.842 240.398 405.635 239.158 400.638C235.922 387.569 232.585 374.069 225.794 362.192C215.363 344.011 196.746 334.298 183.65 328.579C181.698 327.726 179.679 326.877 177.514 325.995C172.399 323.955 167.039 322.034 161.869 320.196C154.808 317.661 147.491 315.046 140.523 312.003C131.493 308.059 124.474 304.025 118.333 299.309C106.422 290.135 98.6356 277.21 91.0835 264.71C88.1257 259.803 85.0797 254.727 81.7985 249.968C74.5288 239.335 65.7229 229.484 57.2138 219.988C51.2495 213.315 45.0613 206.415 39.4847 199.298C29.0011 185.97 20.4429 171.19 12.1883 156.898C9.75783 152.705 7.25449 148.383 4.74272 144.154C-7.28685 124.016 -19.8978 111.567 -35.0005 104.971ZM-79.2696 292.528C-82.6318 291.06 -85.8653 289.518 -88.9311 287.889C-109.719 276.937 -127.773 262.24 -142.688 249.3C-147.419 245.2 -152.415 241.114 -157.244 237.164C-168.892 227.686 -180.931 217.843 -190.767 206.509C-198.997 197.038 -206.808 182.101 -197.435 164.853C-179.483 136.759 -148.424 102.313 -102.433 97.9911C-78.1861 95.6988 -56.8787 97.7725 -39.1518 104.126C-37.8419 104.602 -36.5438 105.104 -35.2966 105.649C-20.3294 112.186 -7.80325 124.533 4.08735 144.546C6.59909 148.775 9.10243 153.097 11.5328 157.29C19.8417 171.606 28.3881 186.413 38.8869 199.78C44.4907 206.909 50.667 213.836 56.6585 220.521C65.1405 230.004 73.931 239.817 81.1736 250.438C84.4278 255.185 87.4737 260.26 90.4433 265.141C98.0378 277.692 105.855 290.695 117.862 299.943C124.018 304.698 131.131 308.741 140.215 312.708C147.21 315.763 154.527 318.378 161.589 320.913C166.747 322.778 172.092 324.66 177.194 326.727C179.36 327.609 181.39 328.431 183.342 329.284C196.357 334.968 214.823 344.582 225.138 362.583C231.911 374.355 235.233 387.817 238.426 400.835C239.654 405.859 240.971 411.051 242.424 416.077C243.954 421.297 245.619 426.577 247.251 431.712C251.814 446.103 256.521 460.977 258.413 476.235C260.904 496.405 254.111 515.36 238.257 532.587C223.946 548.13 207.099 563.566 188.118 578.49C172.243 590.961 155.918 597.068 139.576 596.711C125.739 596.383 111.714 592.937 95.4728 585.844C84.8982 581.225 74.4126 575.516 64.283 570.026C54.1805 564.549 43.7492 558.863 33.256 554.28C29.487 552.634 25.9419 551.214 22.446 549.978C12.16 546.325 2.96456 544.537 -5.60974 544.505C-12.129 544.499 -18.5678 545.787 -24.7694 547.05C-28.7688 547.854 -32.9394 548.68 -37.061 549.172C-45.0824 550.092 -51.4885 549.457 -56.6132 547.219C-58.7823 546.272 -60.7551 545.023 -62.4503 543.508C-69.4512 537.286 -70.4329 528.075 -64.8722 520.592C-58.0369 511.373 -44.8792 509.855 -33.2613 508.536C-30.8506 508.266 -28.5331 507.986 -26.3902 507.663C-11.0864 505.371 3.03165 495.297 16.7717 476.922C28.4297 461.318 42.3511 440.31 46.3512 416.292C49.7722 395.67 47.6492 373.918 40.5074 356.56C33.8509 340.383 20.1405 327.938 -1.36128 318.547C-13.9424 313.053 -27.6033 309.217 -38.5615 306.142C-51.9853 302.281 -65.875 298.378 -79.2696 292.528Z" fill="#02B0AF" fill-opacity="0.2"/>
<path d="M-37.7645 118.841C-49.3424 113.785 -62.6296 111.533 -76.1978 112.291C-94.1386 113.302 -112.551 119.014 -129.398 128.832C-145.86 138.432 -160.169 151.457 -170.728 166.541L-170.802 166.637C-178.073 179.218 -175.851 193.425 -164.224 208.867C-153.737 222.778 -140.674 236.781 -124.242 251.642C-108.99 265.439 -93.7564 275.579 -77.7047 282.589C-75.5355 283.537 -73.2885 284.454 -71.0991 285.281C-56.49 290.789 -41.0028 294.583 -26.012 298.257C-20.1746 299.676 -14.1356 301.151 -8.26428 302.715C-4.67709 303.668 -1.00012 304.564 2.58364 305.451C14.7311 308.464 27.2548 311.577 38.67 316.562C41.1916 317.663 43.5846 318.838 45.8606 320.058C52.6346 323.694 59.8194 328.608 62.019 337.543C63.7006 344.412 63.5325 351.894 63.3659 359.15C63.3448 360.529 63.3084 361.869 63.2991 363.221C63.2671 366.178 63.2503 369.173 63.2217 372.195C63.1393 389.239 63.0454 406.826 58.6288 423.075C54.1885 439.377 44.9293 454.738 35.9646 469.645C33.9761 472.942 31.9401 476.347 30.0176 479.64C20.075 496.639 10.849 516.211 27.1762 532.866C41.9794 547.984 61.3718 557.325 80.1407 566.394L82.2201 567.399C86.162 569.315 89.6631 570.908 92.8898 572.317C112.195 580.749 127.398 584.16 142.221 583.337C161.868 582.264 178.682 571.043 192.534 560.175C195.081 558.188 197.745 556.155 200.279 554.195C214.004 543.691 228.24 532.829 238.276 518.647C249.152 503.282 252.282 483.696 247.353 462.01C245.17 452.371 241.805 442.927 238.6 433.778C238.166 432.555 237.758 431.344 237.312 430.148C236.192 426.947 235.185 423.634 234.209 420.399C232.428 414.423 230.544 408.24 227.821 402.499C226.35 399.435 225.016 396.205 223.689 393.107C220.998 386.701 218.216 380.062 214.131 374.113C208.399 365.798 200.766 358.364 191.445 352.13C185.733 348.279 179.463 344.895 172.359 341.792C157.907 335.48 142.433 331.434 127.444 327.535C124.946 326.896 122.425 326.312 119.729 325.683C112.7 324.034 105.447 322.383 99.0205 319.577C89.6389 315.479 84.114 309.87 81.6591 301.889C80.1313 296.96 79.1216 291.805 78.146 286.794C77.031 281.141 75.894 275.317 74.0014 269.745C70.5897 259.666 65.8909 250.317 60.078 241.967C55.3113 235.139 50.3312 228.283 45.5358 221.668C36.8032 209.653 27.7704 197.217 19.676 184.48C17.1084 180.453 14.5696 176.212 12.1036 172.101C3.40332 157.646 -5.58871 142.677 -18.2345 131.342C-23.9725 126.221 -30.552 121.991 -37.7645 118.841ZM-168.257 168.201C-147.1 138.019 -110.907 117.246 -76.0435 115.264C-62.9377 114.53 -50.1046 116.713 -38.9605 121.58C-32.0464 124.6 -25.7143 128.657 -20.1695 133.629C-7.84411 144.662 1.01735 159.413 9.60234 173.688C12.0683 177.8 14.6342 182.052 17.2171 186.118C25.3538 198.906 34.4019 211.381 43.177 223.447C47.9723 230.061 52.9643 236.891 57.6768 243.695C63.332 251.815 67.912 260.918 71.2168 270.724C73.0601 276.114 74.1667 281.86 75.2629 287.407C76.2691 292.496 77.3092 297.729 78.8711 302.802C81.5771 311.539 87.7921 317.934 97.8787 322.339C104.549 325.252 111.938 326.962 119.099 328.604C121.768 329.221 124.316 329.817 126.748 330.46C141.617 334.338 157.009 338.349 171.244 344.566C178.213 347.61 184.293 350.911 189.866 354.636C198.873 360.701 206.252 367.831 211.757 375.852C215.669 381.532 218.378 388.043 221.008 394.293C222.311 397.445 223.672 400.687 225.174 403.829C227.805 409.336 229.632 415.429 231.394 421.3C232.358 424.562 233.38 427.915 234.531 431.194C234.965 432.417 235.4 433.64 235.807 434.851C239.02 443.906 242.328 453.261 244.489 462.728C247.8 477.25 248.967 498.456 235.883 516.956C226.118 530.739 212.1 541.471 198.528 551.848C195.954 553.823 193.29 555.856 190.743 557.843C177.259 568.388 160.921 579.332 142.106 580.349C127.784 581.132 112.996 577.806 94.1519 569.576C90.9524 568.178 87.4902 566.569 83.5635 564.693L81.4841 563.688C62.9475 554.752 43.7719 545.506 29.3587 530.752C14.5131 515.583 22.8322 497.94 32.6259 481.134C34.5484 477.841 36.5725 474.463 38.5611 471.167C47.6239 456.108 57.0049 440.543 61.5568 423.837C66.0731 407.212 66.1686 389.4 66.256 372.197C66.2728 369.202 66.2895 366.206 66.3215 363.25C66.358 361.91 66.3672 360.558 66.4037 359.218C66.5599 351.763 66.7567 344.068 64.9495 336.821C62.4933 326.773 54.6475 321.377 47.3278 317.438C44.9976 316.194 42.4962 314.972 39.9203 313.847C28.2611 308.755 15.6171 305.622 3.36114 302.562C-0.19551 301.686 -3.88776 300.752 -7.44784 299.81C-13.3581 298.262 -19.3971 296.787 -25.2498 295.329C-40.1592 291.69 -55.5533 287.905 -69.9996 282.468C-72.1619 281.652 -74.3277 280.771 -76.4697 279.835C-92.2503 272.943 -107.209 262.988 -122.237 249.418C-138.531 234.682 -151.466 220.832 -161.853 207.062C-172.668 192.717 -174.831 179.632 -168.257 168.201Z" fill="#02B0AF" fill-opacity="0.2"/>
<path d="M165.697 363.033C152.709 357.36 139.241 354.416 127.781 354.706C113.147 355.095 101.847 360.491 94.1771 370.734C87.5871 382.127 84.7015 394.943 81.8851 407.306C80.3663 414.036 78.768 421.022 76.6359 427.678C72.3445 440.979 65.6766 452.402 58.6313 464.467C56.9644 467.323 55.25 470.287 53.5746 473.236C47.1676 484.579 40.3241 499.509 44.3624 514.51C47.6466 526.728 57.149 536.981 73.4205 545.928C79.4082 549.221 84.9296 551.955 90.244 554.276C102.934 559.818 114.331 562.923 125.11 563.821C143.845 565.353 162.976 560.212 180.49 548.942C196.747 538.478 214.843 525.654 225.664 509.749C236.548 493.774 238.118 475.024 230.55 450.732C221.678 422.255 205.748 382.365 169.756 364.902C168.424 364.256 167.08 363.637 165.697 363.033ZM90.5401 553.598C85.2256 551.277 79.7584 548.567 73.7708 545.273C57.7044 536.448 48.302 526.337 45.0552 514.329C41.0967 499.588 47.8692 484.821 54.1899 473.601C55.8652 470.653 57.5796 467.688 59.2465 464.833C66.3155 452.713 72.9952 441.263 77.3222 427.881C79.4933 421.21 81.0644 414.212 82.5951 407.454C85.3996 395.119 88.2886 382.368 94.7804 371.127C114.79 344.383 153.878 358.678 165.401 363.711C166.757 364.303 168.101 364.922 169.406 365.557C205.154 382.913 221.008 422.608 229.834 450.968C237.31 475.026 235.795 493.575 225.046 509.317C214.272 525.114 196.266 537.881 180.086 548.313C162.752 559.469 143.738 564.563 125.177 563.076C114.479 562.213 103.148 559.105 90.5401 553.598Z" fill="#02B0AF" fill-opacity="0.2"/>
<path d="M163.963 384.747C163.935 384.735 163.963 384.747 163.963 384.747C153.767 380.294 143.087 379.245 132.254 381.649C118.355 384.716 108.046 396.196 100.776 416.686C93.6089 436.867 83.4194 454.727 72.6089 473.639C71.5276 475.524 70.4343 477.435 69.3801 479.332C61.5424 494.764 61.1712 508.033 68.2614 518.782C73.61 526.865 82.0766 533.5 93.4376 538.462C98.5351 540.689 104.047 542.483 109.815 543.839C128.469 548.144 148.271 545.977 167.071 537.528C187.711 528.268 204.646 514.775 213.594 500.57C222.551 486.273 222.816 469.18 214.361 446.696C210.134 435.455 194.087 397.903 163.963 384.747ZM93.7184 537.745C82.493 532.843 74.1382 526.32 68.8744 518.339C61.9301 507.848 62.315 494.843 70.0071 479.67C71.0885 477.786 72.1699 475.901 73.2631 473.989C83.5862 455.897 94.2867 437.163 101.478 416.928C108.641 396.682 118.774 385.383 132.385 382.385C143.074 380.014 153.595 381.058 163.655 385.452C193.535 398.502 209.463 435.808 213.645 446.932C221.981 469.17 221.771 486.061 212.948 500.127C204.075 514.235 187.253 527.616 166.769 536.815C148.098 545.191 128.482 547.375 109.976 543.102C104.235 541.757 98.7617 539.948 93.7184 537.745Z" fill="#02B0AF" fill-opacity="0.2"/>
<path d="M165.254 416.015C165.227 416.003 165.227 416.003 165.254 416.015C162.543 414.831 159.783 413.981 157.039 413.461C139.963 410.2 128.817 423.154 123.707 431.157C118.892 438.708 114.497 446.7 110.248 454.433C106.447 461.362 102.513 468.522 98.3088 475.339L98.2225 475.463C93.7421 484.612 86.2821 499.919 96.7759 510.636C99.9664 513.902 103.826 516.524 108.245 518.455C119.796 523.499 132.8 522.851 141.668 521.397C162.796 517.968 198.872 504.117 200.183 473.985C201.19 451.276 185.183 424.719 165.254 416.015ZM100.89 476.821C105.145 469.962 109.079 462.802 112.892 455.846C117.09 448.156 121.461 440.217 126.241 432.748C130.946 425.375 141.165 413.437 156.502 416.39C159.032 416.882 161.591 417.676 164.085 418.766C183.011 427.031 198.207 452.265 197.262 473.872C196.023 502.065 161.483 515.134 141.25 518.437C132.775 519.805 120.38 520.461 109.48 515.701C105.413 513.924 101.883 511.511 98.9584 508.522C90.621 500.038 95.5467 487.725 100.89 476.821Z" fill="#02B0AF" fill-opacity="0.2"/>
<path d="M-39.3215 137.856C-41.5449 136.885 -43.8664 136.065 -46.1658 135.416C-82.8599 125.105 -115.416 154.182 -131.575 172.405C-141.64 186.283 -138.769 204.326 -123.079 226.063C-109.444 244.965 -93.3065 258.728 -75.138 266.954C-52.709 277.105 -27.048 281.112 -9.8592 283.228C-8.63252 283.376 -7.32449 283.56 -5.91143 283.725C10.4727 285.908 35.1946 289.183 43.0111 272.321C49.1002 259.192 40.2611 242.32 33.807 230.041C33.293 229.074 32.8062 228.119 32.3346 227.203C25.3986 213.81 16.6351 201.2 8.15647 188.974C4.86337 184.242 1.45495 179.331 -1.77894 174.464C-11.6501 159.66 -23.0257 144.973 -39.3215 137.856ZM-73.1066 267.034C-73.676 266.785 -74.2454 266.536 -74.8419 266.276C-92.902 258.098 -108.943 244.409 -122.493 225.608C-137.956 204.165 -140.825 186.413 -131.007 172.879C-115.012 154.81 -82.6832 125.957 -46.3924 136.156C-44.093 136.806 -41.8257 137.602 -39.6294 138.561C-23.5234 145.595 -12.2326 160.18 -2.41907 174.895C0.814821 179.762 4.22324 184.673 7.54344 189.416C16.0068 201.604 24.7704 214.213 31.664 227.556C32.1355 228.472 32.6342 229.4 33.1363 230.394C39.5057 242.571 48.2531 259.21 42.3061 272.013C34.7147 288.36 10.3265 285.134 -5.84411 282.979C-7.24533 282.787 -8.55336 282.603 -9.78004 282.455C-26.4606 280.432 -51.1981 276.602 -73.1066 267.034Z" fill="#02B0AF" fill-opacity="0.2"/>
<path d="M-39.4184 158.186C-47.6612 154.586 -56.175 153.677 -64.8125 155.49C-79.7685 158.612 -93.612 168.87 -102.848 183.66C-107.199 190.961 -108.881 199.396 -107.553 207.369C-103.818 229.793 -82.6422 246.435 -64.0688 254.547C-60.9778 255.897 -57.8699 257.061 -54.8266 258.002C-43.5293 261.483 -32.1142 263.66 -20.9303 264.444C-9.94475 265.239 2.45326 265.165 11.0641 258.755C19.6479 252.334 20.1992 239.983 12.6426 223.058C4.45824 204.761 -7.08043 186.677 -19.0412 173.479C-25.3684 166.454 -32.2331 161.325 -39.4184 158.186ZM-63.761 253.842C-82.1446 245.813 -103.139 229.347 -106.806 207.211C-108.112 199.409 -106.474 191.149 -102.194 184.01C-93.0797 169.426 -79.4039 159.255 -64.658 156.171C-56.2034 154.407 -47.8098 155.296 -39.7297 158.825C-32.6257 161.928 -25.8424 167.022 -19.5882 173.918C-7.70871 187.081 3.81124 205.059 11.9532 223.306C19.464 240.114 19.0258 251.836 10.6063 258.103C2.21386 264.382 -10.013 264.434 -20.8665 263.633C-31.9842 262.845 -43.3332 260.665 -54.5763 257.208C-57.6163 256.332 -60.697 255.18 -63.761 253.842Z" fill="#02B0AF" fill-opacity="0.2"/>
</svg>
