<svg width="349" height="568" viewBox="0 0 349 568" fill="none" xmlns="http://www.w3.org/2000/svg">
<path d="M541.806 391.046C534.069 394.24 524.266 389.605 515.611 385.515C498.44 377.412 481.305 367.816 463.239 356.217C457.886 352.781 452.538 349.099 447.367 345.536C436.203 337.87 424.678 329.911 412.42 323.937C394.274 315.105 374.594 309.589 355.987 304.674C338.923 300.198 319.578 294.281 305.669 280.927C295.133 270.8 288.334 257.097 285.976 241.303C283.775 226.303 285.897 210.621 292.016 197.182C299.792 180.003 312.037 166.824 326.466 160.063C332.35 157.306 338.769 155.506 345 153.776C354.637 151.092 364.611 148.31 372.462 141.868C384.462 131.998 387.482 114.253 379.342 101.47C369.127 85.4305 347.59 85.9113 338.778 86.8883C332.683 87.5435 326.618 88.7299 320.758 89.8795C309.104 92.1475 297.074 94.4733 284.518 92.8047C267.891 90.5659 252.444 83.6235 237.514 76.9198L236.049 76.2623C206.456 62.9501 175.184 51.5887 146.761 70.8247C135.831 78.2257 127.224 88.6442 118.902 98.7256C115.673 102.646 112.32 106.686 108.881 110.504C106.977 112.622 104.984 114.762 103.074 116.823C93.4393 127.204 83.4791 137.964 78.475 151.58C72.0808 169.031 77.2975 186.801 83.1724 203.489L84.4558 207.123C90.5015 224.256 96.223 240.452 99.2974 258.392C99.7582 261.103 100.162 263.822 100.586 266.712C102.707 280.861 104.875 295.493 113.495 306.309C123.684 319.107 140.958 322.453 156.24 325.391L157.158 325.581C176.181 329.247 194.596 333.546 210.704 345.489C219.225 351.805 226.649 359.512 233.808 366.96C239.648 373.035 245.672 379.285 252.25 384.746C254.114 386.285 256.002 387.832 257.866 389.371C270.928 400.096 283.268 410.234 294.231 423.088C304.229 434.805 311.82 447.283 319.853 460.52C321.474 463.205 323.103 465.866 324.772 468.569C328.577 474.742 332.481 480.02 336.556 484.509L331.643 482.763C328.502 478.962 325.476 474.681 322.557 469.945C320.888 467.243 319.267 464.558 317.638 461.897C309.676 448.767 302.132 436.388 292.279 424.805C281.467 412.141 269.216 402.062 256.242 391.397C254.378 389.858 252.482 388.334 250.627 386.771C243.935 381.243 237.856 374.918 231.976 368.801C224.896 361.436 217.553 353.813 209.209 347.615C193.527 336.015 175.413 331.795 156.707 328.16L155.78 327.995C140.092 324.966 122.281 321.512 111.511 307.96C102.486 296.589 100.243 281.629 98.0797 267.136C97.6464 264.27 97.243 261.552 96.7979 258.873C93.7846 241.147 88.1015 225.074 82.0785 208.031L80.7951 204.398C75.0283 188.021 69.4364 168.995 76.1245 150.717C81.2858 136.581 91.4454 125.647 101.255 115.08C103.165 113.02 105.126 110.895 107.029 108.778C110.426 104.999 113.747 100.975 116.967 97.0791C125.398 86.8448 134.138 76.2819 145.392 68.6668C174.932 48.6773 206.933 60.2981 237.174 73.868L238.638 74.5255C253.398 81.1687 268.66 88.0176 284.92 90.2084C297.077 91.8446 308.354 89.6345 320.327 87.3157C326.244 86.159 332.366 84.9656 338.576 84.2963C347.837 83.2874 370.608 82.8065 381.59 100.078C390.435 113.96 387.157 133.203 374.153 143.894C365.903 150.686 355.659 153.537 345.742 156.313C339.626 158.029 333.305 159.782 327.619 162.445C313.742 168.964 301.964 181.679 294.443 198.291C281.947 225.818 287.456 259.799 307.526 279.095C320.977 292.039 339.991 297.811 356.722 302.223C375.458 307.157 395.285 312.725 413.64 321.659C426.06 327.717 437.683 335.711 448.935 343.436C454.082 346.991 459.439 350.648 464.743 354.067C482.745 365.616 499.766 375.145 516.841 383.213C525.002 387.073 534.247 391.427 540.947 388.686C544.379 387.276 546.98 384.119 548.902 379.022C553.745 366.088 553.374 350.561 547.828 332.948C546.722 329.432 545.576 325.874 544.435 322.455C539.955 308.7 535.338 294.486 533.049 279.729C530.524 263.327 529.11 244.416 528.714 221.867C528.324 199.074 531.932 180.058 539.766 163.722C542.308 158.188 545.383 153.391 548.833 149.002L551.411 149.918C547.87 154.33 544.721 159.183 542.023 164.771C534.376 180.735 530.858 199.345 531.232 221.721C531.622 244.131 533.013 262.951 535.533 279.215C537.785 293.767 542.38 307.891 546.821 321.523C547.953 324.966 549.099 328.523 550.205 332.039C555.928 350.236 556.263 366.325 551.221 379.818C549.056 385.678 545.979 389.324 541.806 391.046Z" fill="#02B0AF" fill-opacity="0.2"/>
<path d="M351.267 165.893C360.976 162.468 371.007 158.91 379.561 152.801C392.744 143.379 399.329 126.161 396.355 108.942C395.323 102.905 393.203 97.3848 390.211 92.6233L391.184 92.9691C393.99 97.6371 395.974 102.999 396.994 108.84C400.012 126.322 393.316 143.774 379.942 153.348C371.313 159.512 361.226 163.077 351.483 166.517C345.465 168.652 339.225 170.871 333.414 173.655C318.504 180.847 307.259 194.217 302.589 210.363C297.796 226.931 300.252 244.76 309.362 259.284C323.061 281.165 346.93 288.306 369.979 295.211C382.405 298.943 395.236 302.764 406.373 308.886C409.701 310.699 413.112 312.432 416.41 314.097C420.144 316 424.024 317.954 427.771 320.053C434.392 323.776 440.958 327.808 447.313 331.738C449.564 333.113 451.781 334.504 454.04 335.855L455.323 336.639C469.528 345.304 485.606 355.1 502.113 359.214C511.911 361.628 520.409 360.841 526.02 357.001C530.299 354.056 532.914 349.397 533.755 343.177C535.221 332.193 532.419 321.116 529.717 310.376C528.232 304.534 526.711 298.487 525.929 292.594C524.456 281.633 524.303 270.347 524.151 259.446C524.107 256.718 524.087 253.999 524.01 251.287C523.917 246.926 523.752 242.457 523.608 238.16C523.3 229.394 522.989 220.326 523.198 211.415C523.799 186.372 529.358 165.337 540.531 146.078L541.163 146.303C529.992 165.48 524.45 186.466 523.851 211.428C523.642 220.339 523.961 229.382 524.27 238.148C524.414 242.445 524.587 246.89 524.672 251.276C524.725 253.979 524.769 256.707 524.813 259.434C524.965 270.336 525.126 281.597 526.592 292.501C527.383 298.37 528.913 304.392 530.382 310.201C533.091 320.999 535.924 332.141 534.415 343.247C533.553 349.679 530.862 354.476 526.41 357.523C520.617 361.49 511.947 362.299 501.979 359.824C485.39 355.708 469.248 345.862 454.994 337.18L453.711 336.395C451.461 335.02 449.21 333.645 446.993 332.254C440.653 328.357 434.096 324.301 427.49 320.611C423.744 318.512 419.872 316.533 416.154 314.664C412.856 312.998 409.445 311.266 406.093 309.444C395.02 303.372 382.222 299.535 369.836 295.845C346.666 288.897 322.699 281.721 308.848 259.65C299.652 244.985 297.159 226.951 302.021 210.189C306.752 193.873 318.114 180.325 333.189 173.054C338.984 170.238 345.216 168.043 351.267 165.893Z" fill="#02B0AF" fill-opacity="0.2"/>
<path d="M361.173 175.248C366.954 172.701 372.958 170.068 378.554 166.962C395.772 157.44 405.632 143.495 407.857 125.521C409.032 116.05 408.554 106.758 406.604 98.4496L407.333 98.7089C409.211 106.992 409.657 116.217 408.508 125.616C406.263 143.802 396.294 157.9 378.869 167.54C373.24 170.662 367.236 173.294 361.431 175.833C351.919 180.013 342.077 184.349 333.687 190.845C319.874 201.577 313.646 217.635 317.041 233.826C321.121 253.329 335.562 264.953 346.965 271.253C358.109 277.433 370.284 282.253 382.046 286.927C388.453 289.478 395.079 292.107 401.449 294.919C413.314 300.149 424.857 306.361 436.062 312.371C442.427 315.811 449.036 319.338 455.632 322.669L455.704 322.695C466.94 328.386 478.556 334.241 490.913 335.62C497.08 336.305 502.037 335.382 505.654 332.915C512.34 328.361 513.09 319.314 513.266 310.418C513.445 301.744 513.783 292.933 514.131 284.401C514.573 272.751 515.039 260.727 515.134 248.899C515.176 243.079 515.049 237.117 514.934 231.351C514.654 217.418 514.351 203.011 516.285 189.015C518.441 173.236 523.46 157.652 531.151 142.717L531.759 142.934C524.052 157.836 519.06 173.346 516.854 189.108C514.913 203.046 515.225 217.429 515.514 231.338C515.629 237.104 515.756 243.066 515.706 248.911C515.626 260.771 515.16 272.796 514.718 284.445C514.403 292.962 514.041 301.764 513.861 310.438C513.705 317.121 513.475 328.326 505.953 333.459C502.196 336.014 497.091 336.966 490.794 336.262C485.833 335.732 480.976 334.444 476.258 332.767C469.108 330.225 462.164 326.716 455.382 323.292L455.309 323.266C448.714 319.936 442.114 316.385 435.74 312.969C424.56 306.968 413.016 300.756 401.175 295.534C394.806 292.722 388.18 290.093 381.797 287.55C370.011 282.868 357.836 278.048 346.643 271.85C335.127 265.484 320.542 253.725 316.409 233.985C312.97 217.532 319.285 201.231 333.289 190.347C341.729 183.787 351.628 179.444 361.173 175.248Z" fill="#02B0AF" fill-opacity="0.2"/>
<path d="M391.274 170.251C405.654 161.007 414.562 146.888 416.998 129.4C417.874 123.082 418.744 113.311 417.962 102.487L418.619 102.72C419.369 113.479 418.516 123.201 417.633 129.462C415.153 147.153 406.16 161.434 391.631 170.788C386.414 174.139 380.542 177.092 374.324 180.251C355.316 189.877 335.641 199.84 332.408 221.729C329.184 243.593 350.289 257.97 369.03 268.056C375.469 271.522 382.165 274.724 388.643 277.848C392.265 279.601 396.01 281.398 399.688 283.226C403.714 285.232 407.732 287.263 411.749 289.293C425.288 296.133 439.313 303.226 453.491 309.115C473.346 317.377 487.046 316.521 494.205 306.629C498.947 300.07 501 291.595 502.679 283.481C502.888 282.432 503.365 281.012 503.928 279.35C505.256 275.384 507.086 269.926 505.638 267.603L505.6 267.48C505.247 265.081 505.818 262.627 506.379 260.278C506.593 259.368 506.798 258.482 506.937 257.628C507.591 253.861 507.702 249.928 507.802 246.101L507.828 244.796C508.032 237.362 507.813 229.806 507.615 222.504C507.523 219.294 507.433 216.002 507.383 212.752C507.032 192.931 509.902 174.064 515.88 156.629C517.83 150.912 520.228 145.245 522.607 139.708L523.215 139.924C520.836 145.461 518.438 151.128 516.488 156.845C510.536 174.207 507.691 193.001 508.011 212.756C508.062 216.006 508.167 219.331 508.243 222.508C508.442 229.811 508.651 237.391 508.447 244.824L508.422 246.13C508.313 249.981 508.218 253.947 507.547 257.763C507.399 258.641 507.176 259.576 506.971 260.462C506.436 262.737 505.9 265.094 506.19 267.361C507.73 269.963 505.943 275.3 504.495 279.606C503.949 281.22 503.471 282.639 503.272 283.664C501.567 291.851 499.512 300.407 494.687 307.047C487.955 316.352 475.736 317.898 458.274 311.691C456.644 311.112 454.959 310.459 453.242 309.739C439.015 303.833 425.015 296.748 411.46 289.875C407.443 287.845 403.425 285.814 399.424 283.817C395.769 281.997 392.001 280.192 388.378 278.439C381.9 275.315 375.18 272.104 368.741 268.638C351.284 259.256 328.462 244.159 331.781 221.643C335.053 199.412 354.885 189.395 374.034 179.682C380.219 176.539 386.09 173.585 391.274 170.251Z" fill="#02B0AF" fill-opacity="0.2"/>
<path d="M385.845 183.908C395.66 178.027 405.846 171.951 413.302 163.15C424.268 150.256 426.3 132.515 426.894 115.276C427.004 112.192 427.091 109.018 427.204 105.771L429.782 106.688C429.691 109.641 429.602 112.513 429.497 115.352C428.893 133.08 426.761 151.334 415.277 164.838C407.512 173.967 397.177 180.156 387.156 186.154C385.074 187.386 382.942 188.683 380.843 189.964C364.479 200.091 355.125 210.299 353.059 220.275C351.759 226.552 353.323 232.942 357.722 239.218C368.821 255.079 388.114 264.922 405.136 273.602L406.623 274.35C409.153 275.632 411.69 276.972 414.187 278.271C423.286 283.039 432.683 287.968 442.387 291.417C446.765 292.973 450.873 294.131 454.947 294.922C465.007 296.909 473.034 295.982 478.8 292.169C484.673 288.284 488.167 281.692 491.481 274.679C496.601 258.501 498.923 242.179 498.565 224.766C498.518 223.051 498.494 221.344 498.446 219.629C498.099 204.959 497.746 189.767 500.981 174.81C503.388 163.722 507.104 152.88 510.675 142.37C511.377 140.318 512.079 138.267 512.774 136.158L515.23 137.031C514.52 139.107 513.842 141.167 513.149 143.194C509.58 153.623 505.889 164.392 503.534 175.334C500.355 189.982 500.699 204.349 501.052 219.541C501.1 221.257 501.148 222.972 501.171 224.679C501.523 242.418 499.178 259.034 493.922 275.519L493.896 275.592L493.87 275.665C490.368 283.05 486.679 290.038 480.211 294.287C473.866 298.496 465.192 299.549 454.441 297.427C450.245 296.593 446.031 295.424 441.507 293.816C431.633 290.306 422.138 285.343 412.975 280.525C410.503 279.235 407.941 277.886 405.436 276.612L403.973 275.873C386.676 267.041 367.085 257.037 355.619 240.662C350.784 233.766 349.078 226.695 350.531 219.678C352.779 208.807 362.252 198.341 379.501 187.652C381.607 186.428 383.763 185.14 385.845 183.908Z" fill="#02B0AF" fill-opacity="0.2"/>
<path d="M363.308 489.936C364.452 490.342 365.628 490.733 366.805 491.042C382.718 495.52 401.445 496.012 422.519 492.518C462.539 485.896 487.599 453.85 501.576 428.164C508.839 412.2 500.96 399.456 493.083 391.561C483.772 382.225 472.685 374.422 461.952 366.854C457.507 363.713 452.901 360.487 448.533 357.209C434.736 346.854 418.109 335.137 399.276 326.854C396.508 325.624 393.575 324.472 390.559 323.4C378.521 319.121 366.17 316.566 354.226 314.102C344.526 312.106 332.427 309.614 321.167 305.611C302.05 298.817 289.485 288.927 282.78 275.422C275.54 260.878 272.399 242.202 274.094 224.177C276.085 203.162 286.854 184.116 296.017 169.895C306.748 153.192 318.292 143.68 331.297 140.77C333.142 140.357 335.133 139.996 337.214 139.613C347.367 137.715 358.863 135.583 364.414 126.9C368.98 119.757 367.52 111.458 360.749 106.23C359.117 104.965 357.25 103.973 355.256 103.264C350.538 101.587 344.843 101.426 337.804 102.732C334.223 103.404 330.644 104.378 327.18 105.339C321.869 106.793 316.402 108.301 310.786 108.688C303.38 109.179 295.374 108.196 286.248 105.665C283.13 104.803 279.982 103.794 276.626 102.601C267.238 99.2642 257.812 94.9553 248.71 90.8159C239.543 86.6264 230.068 82.3001 220.559 78.9201C205.893 73.7076 193.404 71.5423 181.253 72.1269C166.847 72.8138 152.883 79.1915 139.716 91.1119C124.079 105.278 110.322 119.783 98.812 134.209C85.9378 150.316 81.1665 167.439 84.6155 185.019C87.2035 198.238 92.2267 210.926 97.0792 223.17C98.7977 227.506 100.595 232.008 102.221 236.448C103.803 240.708 105.233 245.161 106.618 249.434C110.235 260.608 113.966 272.152 120.603 282.072C130.794 297.254 147.59 304.566 159.337 308.741C161.088 309.364 162.896 309.979 164.835 310.613C169.41 312.075 174.192 313.419 178.804 314.702C185.104 316.476 191.632 318.303 197.883 320.524C205.981 323.403 212.337 326.484 217.97 330.212C228.897 337.465 236.465 348.235 243.802 358.651C246.677 362.74 249.639 366.971 252.785 370.911C259.763 379.719 268.03 387.752 276.016 395.494C281.615 400.936 287.423 406.561 292.712 412.413C302.651 423.369 311.004 435.707 319.063 447.638C321.435 451.138 323.878 454.746 326.323 458.272C338.025 475.06 349.762 485.121 363.308 489.936ZM390.343 324.008C393.359 325.08 396.267 326.223 399.035 327.453C417.796 335.71 434.407 347.394 448.18 357.741C452.548 361.019 457.145 364.269 461.59 367.41C472.307 374.945 483.386 382.773 492.64 392.034C500.382 399.771 508.095 412.292 500.994 427.875C487.093 453.423 462.175 485.301 422.418 491.879C401.457 495.359 382.788 494.86 366.973 490.417C365.804 490.083 364.643 489.726 363.525 489.328C350.099 484.556 338.442 474.578 326.869 457.891C324.424 454.365 321.981 450.757 319.609 447.257C311.502 435.308 303.158 422.947 293.202 411.957C287.889 406.097 282.09 400.447 276.467 394.997C268.505 387.263 260.254 379.263 253.3 370.464C250.178 366.532 247.216 362.302 244.333 358.237C236.955 347.78 229.357 336.943 218.341 329.631C212.692 325.87 206.255 322.788 198.107 319.892C191.832 317.662 185.305 315.835 179.005 314.061C174.401 312.754 169.635 311.443 165.068 309.957C163.13 309.323 161.313 308.731 159.561 308.109C147.887 303.96 131.229 296.724 121.15 281.691C114.535 271.862 110.819 260.351 107.243 249.218C105.867 244.921 104.403 240.483 102.83 236.199C101.179 231.75 99.4068 227.257 97.6725 222.888C92.8201 210.644 87.8125 197.989 85.2315 184.827C81.828 167.428 86.5788 150.516 99.3196 134.554C110.821 120.152 124.537 105.687 140.14 91.5367C153.191 79.7119 167.023 73.3969 181.266 72.7067C193.327 72.1449 205.743 74.2842 220.311 79.4622C229.797 82.8335 239.271 87.1598 248.422 91.3164C257.549 95.4644 266.975 99.7734 276.387 103.119C279.768 104.32 282.94 105.338 286.058 106.2C295.233 108.749 303.344 109.742 310.808 109.244C316.481 108.85 322.006 107.334 327.325 105.856C330.756 104.911 334.335 103.937 337.892 103.256C344.816 101.964 350.429 102.124 355.026 103.758C356.972 104.449 358.765 105.416 360.333 106.63C366.806 111.616 368.225 119.571 363.844 126.424C358.461 134.865 347.103 136.992 337.074 138.851C334.993 139.234 332.993 139.619 331.148 140.032C317.971 142.964 306.302 152.595 295.471 169.428C286.282 183.721 275.454 202.855 273.444 224.001C271.73 242.156 274.91 260.955 282.188 275.623C288.972 289.292 301.665 299.283 320.952 306.138C332.237 310.149 344.36 312.65 354.084 314.654C366.003 317.192 378.329 319.738 390.343 324.008Z" fill="#02B0AF" fill-opacity="0.2"/>
<path d="M364.864 477.696C375.249 481.387 386.95 482.533 398.711 481.043C414.262 479.064 429.934 472.965 443.994 463.389C457.731 454.027 469.385 441.815 477.65 428.043L477.709 427.954C483.265 416.561 480.461 404.333 469.398 391.607C459.419 380.144 447.194 368.759 431.984 356.833C417.866 345.761 403.989 337.87 389.591 332.753C387.645 332.061 385.633 331.401 383.677 330.815C370.627 326.916 356.917 324.564 343.647 322.285C338.48 321.407 333.134 320.494 327.929 319.493C324.749 318.883 321.494 318.329 318.321 317.776C307.566 315.898 296.477 313.957 286.238 310.317C283.976 309.513 281.821 308.638 279.766 307.716C273.648 304.966 267.095 301.13 264.634 293.489C262.75 287.615 262.437 281.094 262.138 274.769C262.072 273.568 262.021 272.399 261.947 271.222C261.794 268.648 261.625 266.04 261.464 263.408C260.492 248.571 259.496 233.261 262.345 218.85C265.21 204.392 272.327 190.458 279.215 176.935C280.743 173.945 282.306 170.857 283.778 167.874C291.389 152.472 298.218 134.875 282.99 121.381C269.182 109.132 251.734 102.191 234.845 95.4483L232.974 94.7011C229.426 93.2758 226.282 92.1034 223.388 91.0747C206.071 84.9199 192.633 82.8829 179.783 84.5067C162.752 86.6439 148.807 97.4387 137.419 107.745C135.324 109.631 133.131 111.563 131.045 113.424C119.745 123.405 108.022 133.73 100.157 146.686C91.6342 160.723 90.1099 177.959 95.7272 196.529C98.2175 204.783 101.725 212.795 105.074 220.56C105.527 221.598 105.955 222.627 106.417 223.64C107.588 226.357 108.667 229.179 109.715 231.934C111.631 237.026 113.649 242.291 116.37 247.12C117.838 249.696 119.196 252.425 120.541 255.04C123.275 260.449 126.103 266.057 130.022 270.984C135.52 277.868 142.618 283.87 151.11 288.724C156.317 291.725 161.981 294.286 168.353 296.551C181.316 301.158 195.03 303.732 208.313 306.206C210.525 306.609 212.755 306.964 215.14 307.345C221.357 308.35 227.771 309.342 233.535 311.391C241.95 314.382 247.101 318.925 249.726 325.72C251.358 329.916 252.552 334.34 253.708 338.64C255.025 343.491 256.371 348.49 258.359 353.223C261.946 361.785 266.607 369.632 272.177 376.543C276.744 382.193 281.497 387.854 286.076 393.317C294.411 403.237 303.033 413.506 310.857 424.094C313.338 427.442 315.808 430.976 318.205 434.404C326.662 446.449 335.404 458.925 347.103 468.014C352.41 472.119 358.395 475.397 364.864 477.696ZM475.398 426.749C458.836 454.31 428.612 474.604 398.395 478.465C387.035 479.906 375.733 478.793 365.737 475.24C359.535 473.035 353.777 469.893 348.647 465.905C337.245 457.059 328.63 444.766 320.285 432.869C317.887 429.442 315.394 425.898 312.897 422.518C305.033 411.889 296.395 401.587 288.019 391.624C283.441 386.162 278.679 380.525 274.161 374.892C268.742 368.172 264.199 360.531 260.723 352.2C258.788 347.623 257.473 342.691 256.18 337.93C254.992 333.563 253.767 329.073 252.097 324.754C249.207 317.317 243.406 312.133 234.359 308.917C228.376 306.79 221.841 305.755 215.509 304.765C213.149 304.392 210.895 304.029 208.739 303.619C195.562 301.154 181.922 298.607 169.153 294.069C162.903 291.847 157.409 289.346 152.331 286.446C144.122 281.72 137.263 275.968 131.982 269.324C128.23 264.621 125.473 259.121 122.801 253.844C121.474 251.181 120.091 248.443 118.592 245.801C115.965 241.169 114.002 235.979 112.109 230.978C111.07 228.198 109.976 225.343 108.773 222.56C108.32 221.522 107.867 220.485 107.439 219.456C104.088 211.773 100.636 203.834 98.1759 195.728C94.4049 183.293 92.0902 164.912 102.343 148.011C109.997 135.418 121.538 125.221 132.713 115.359C134.832 113.482 137.025 111.55 139.12 109.665C150.208 99.6625 163.756 89.1374 180.067 87.1003C192.482 85.5413 205.554 87.5303 222.458 93.5382C225.327 94.5582 228.439 95.7463 231.971 97.1386L233.842 97.8858C250.52 104.526 267.774 111.398 281.22 123.354C295.068 135.645 288.91 151.508 281.416 166.733C279.945 169.717 278.391 172.78 276.862 175.77C269.898 189.43 262.688 203.55 259.75 218.366C256.838 233.11 257.846 248.617 258.824 263.593C258.993 266.2 259.162 268.808 259.315 271.382C259.365 272.551 259.44 273.728 259.49 274.896C259.811 281.393 260.111 288.102 262.128 294.297C264.881 302.891 272.039 307.106 278.65 310.086C280.754 311.025 283.005 311.935 285.316 312.757C295.774 316.474 306.969 318.426 317.822 320.338C320.971 320.882 324.241 321.469 327.397 322.07C332.635 323.055 337.98 323.969 343.163 324.88C356.36 327.132 369.988 329.483 382.893 333.331C384.824 333.908 386.763 334.542 388.684 335.225C402.839 340.256 416.467 348.003 430.375 358.891C445.457 370.716 457.562 381.977 467.445 393.324C477.735 405.144 480.419 416.398 475.398 426.749Z" fill="#02B0AF" fill-opacity="0.2"/>
<path d="M172.849 277.659C184.499 281.799 196.4 283.537 206.354 282.582C219.065 281.347 228.568 275.959 234.615 266.576C239.652 256.258 241.378 244.928 243.072 233.997C243.981 228.048 244.944 221.87 246.392 215.947C249.312 204.11 254.415 193.761 259.806 182.83C261.082 180.243 262.392 177.558 263.67 174.889C268.55 164.626 273.591 151.214 269.158 138.407C265.552 127.976 256.654 119.636 241.947 112.847C236.534 110.348 231.562 108.307 226.795 106.613C215.413 102.567 205.305 100.563 195.87 100.442C179.472 100.257 163.139 105.902 148.588 116.783C135.081 126.884 120.119 139.153 111.677 153.657C103.184 168.225 102.966 184.638 111.04 205.314C120.505 229.551 136.811 263.289 169.202 276.28C170.401 276.761 171.608 277.218 172.849 277.659ZM226.579 107.221C231.346 108.915 236.27 110.939 241.682 113.438C256.204 120.133 265.005 128.357 268.566 138.608C272.914 151.193 267.925 164.458 263.112 174.609C261.835 177.278 260.524 179.962 259.249 182.55C253.84 193.529 248.728 203.903 245.782 215.813C244.302 221.751 243.363 227.937 242.445 233.912C240.76 244.818 239.027 256.091 234.066 266.271C218.291 290.77 183.401 280.724 173.065 277.051C171.849 276.618 170.641 276.162 169.467 275.69C137.295 262.776 121.067 229.203 111.649 205.064C103.669 184.587 103.851 168.352 112.242 153.994C120.649 139.588 135.537 127.375 148.978 117.305C163.379 106.535 179.614 100.937 195.857 101.095C205.219 101.19 215.27 103.201 226.579 107.221Z" fill="#02B0AF" fill-opacity="0.2"/>
<path d="M173.029 258.657C173.053 258.665 173.029 258.657 173.029 258.657C182.173 261.907 191.532 262.165 200.812 259.41C212.719 255.89 220.987 245.268 226.059 226.992C231.059 208.991 238.832 192.825 247.081 175.705C247.907 173.998 248.741 172.268 249.543 170.553C255.418 156.643 254.928 145.074 248.099 136.154C242.95 129.448 235.176 124.192 224.985 120.57C220.413 118.945 215.506 117.721 210.403 116.894C193.907 114.29 176.807 117.389 160.965 125.894C143.571 135.216 129.66 147.995 122.743 160.905C115.825 173.895 116.641 188.786 125.376 207.834C129.743 217.358 146.008 249.053 173.029 258.657ZM224.785 121.211C234.854 124.79 242.524 129.954 247.593 136.577C254.279 145.281 254.741 156.622 248.976 170.297C248.151 172.003 247.325 173.709 246.491 175.44C238.616 191.816 230.451 208.775 225.433 226.824C220.439 244.882 212.314 255.335 200.653 258.778C191.497 261.495 182.277 261.231 173.254 258.024C146.452 248.498 130.305 217.009 125.985 207.585C117.369 188.744 116.516 174.032 123.333 161.251C130.19 148.43 144.009 135.755 161.271 126.496C177.006 118.063 193.942 114.96 210.309 117.545C215.387 118.364 220.261 119.603 224.785 121.211Z" fill="#02B0AF" fill-opacity="0.2"/>
<path d="M169.989 231.525C170.013 231.534 170.013 231.534 169.989 231.525C172.421 232.39 174.875 232.961 177.295 233.245C192.354 235.037 201.26 223.081 205.217 215.803C208.945 208.938 212.279 201.713 215.503 194.723C218.387 188.461 221.372 181.989 224.613 175.8L224.68 175.687C228.019 167.45 233.573 153.673 223.784 144.989C220.808 142.342 217.289 140.297 213.325 138.888C202.964 135.206 191.687 136.567 184.059 138.375C165.883 142.653 135.338 156.916 136.043 183.218C136.557 203.042 152.113 225.172 169.989 231.525ZM222.276 174.668C218.993 180.897 216.008 187.369 213.116 193.656C209.934 200.606 206.616 207.781 202.914 214.574C199.271 221.278 191.11 232.293 177.582 230.663C175.351 230.39 173.075 229.855 170.838 229.06C153.862 223.026 139.092 201.998 138.591 183.138C137.943 158.527 167.199 145.039 184.604 140.925C191.896 139.216 202.641 137.885 212.418 141.36C216.067 142.657 219.287 144.541 222.015 146.962C229.79 153.835 226.258 164.852 222.276 174.668Z" fill="#02B0AF" fill-opacity="0.2"/>
<path d="M365.054 461.054C367.049 461.763 369.119 462.334 371.16 462.758C403.724 469.484 430.273 442.185 443.219 425.338C451.128 412.644 447.524 397.118 432.539 379.164C419.515 363.55 404.629 352.561 388.315 346.516C368.175 339.057 345.598 337.141 330.511 336.353C329.434 336.299 328.285 336.219 327.045 336.162C312.653 335.266 290.939 333.931 285.17 349.083C280.675 360.881 289.401 375.022 295.769 385.312C296.276 386.122 296.758 386.923 297.225 387.692C304.081 398.922 312.48 409.358 320.607 419.479C323.762 423.394 327.029 427.459 330.142 431.496C339.639 443.775 350.437 455.858 365.054 461.054ZM386.542 346.571C387.053 346.753 387.563 346.934 388.099 347.124C404.316 353.135 419.113 364.065 432.057 379.595C446.826 397.309 450.411 412.581 442.696 424.96C429.883 441.663 403.518 468.753 371.312 462.1C369.271 461.676 367.249 461.122 365.279 460.421C350.832 455.287 340.114 443.286 330.672 431.082C327.56 427.045 324.293 422.98 321.113 419.056C313.002 408.968 304.603 398.532 297.787 387.344C297.32 386.575 296.829 385.798 296.332 384.964C290.043 374.757 281.411 360.814 285.802 349.308C291.407 334.617 312.828 335.93 327.032 336.815C328.263 336.897 329.413 336.976 330.489 337.03C345.129 337.769 366.891 339.586 386.542 346.571Z" fill="#02B0AF" fill-opacity="0.2"/>
<path d="M363.893 443.356C371.287 445.984 378.751 446.254 386.157 444.147C398.981 440.514 410.399 430.739 417.531 417.303C420.87 410.683 421.817 403.24 420.173 396.382C415.549 377.098 396.102 363.912 379.442 357.991C376.669 357.006 373.894 356.183 371.187 355.55C361.143 353.213 351.076 352.018 341.296 352.021C331.687 352.002 320.903 352.826 313.802 358.931C306.725 365.045 307.002 375.827 314.615 390.093C322.858 405.514 334.007 420.543 345.224 431.297C351.16 437.022 357.448 441.065 363.893 443.356ZM379.217 358.623C395.707 364.484 414.985 377.527 419.532 396.566C421.147 403.276 420.227 410.564 416.94 417.039C409.902 430.288 398.624 439.977 385.981 443.564C378.731 445.617 371.373 445.357 364.125 442.781C357.753 440.516 351.538 436.499 345.673 430.881C334.529 420.154 323.403 405.214 315.2 389.835C307.634 375.668 307.297 365.44 314.24 359.471C321.159 353.492 331.796 352.698 341.29 352.731C351.013 352.735 361.023 353.937 371.018 356.257C373.717 356.833 376.469 357.647 379.217 358.623Z" fill="#02B0AF" fill-opacity="0.2"/>
<path d="M362.354 417.552C370.307 420.379 380.97 419.896 387.084 410.016L387.101 409.967L387.267 409.423C389.2 402.906 391.036 396.737 387.354 390.142C383.996 384.099 378.339 379.514 371.043 376.921C370.775 376.825 370.483 376.722 370.207 376.651C364.789 374.862 352.562 372.653 345.047 376.995C342.017 378.739 340.095 381.371 339.35 384.777C336.946 395.702 347.782 408.839 355.871 414.289C357.909 415.644 360.092 416.748 362.354 417.552ZM386.535 409.711C380.608 419.219 370.288 419.66 362.603 416.928C360.389 416.142 358.256 415.055 356.266 413.717C348.33 408.376 337.668 395.52 340.026 384.88C340.734 381.653 342.547 379.174 345.404 377.533C352.737 373.318 364.727 375.498 370.048 377.252C370.316 377.347 370.583 377.442 370.851 377.537C378.001 380.079 383.538 384.539 386.809 390.441C390.358 396.798 388.644 402.544 386.675 409.24L386.535 409.711Z" fill="#02B0AF" fill-opacity="0.2"/>
</svg>
