<svg width="194" height="194" viewBox="0 0 194 194" fill="none" xmlns="http://www.w3.org/2000/svg">
<circle cx="97" cy="97" r="97" fill="#F6F6F9"/>
<path d="M84.1309 172.89L82.5218 172.694L83.7156 162.899L85.3247 163.096L84.8079 167.335L89.0055 167.847L89.5223 163.607L91.1313 163.803L89.9375 173.598L88.3284 173.402L88.8179 169.386L84.6203 168.874L84.1309 172.89Z" fill="#1E1E1E"/>
<path d="M75.1861 160.557L75.3221 162.657L79.3707 163.776L80.566 162.045L82.2642 162.514L76.184 171.07L74.3092 170.552L73.5014 160.092L75.1861 160.557ZM78.4487 165.101L75.4327 164.267L75.7537 168.977L78.4487 165.101Z" fill="#1E1E1E"/>
<path d="M65.907 168.497L65.3689 169.708L61.7623 168.105L62.3004 166.894L65.907 168.497ZM66.5538 156.908L63.8346 163.026L70.8044 158.797L71.9637 159.312L67.9564 168.328L66.4751 167.67L69.1943 161.552L62.2245 165.781L61.0653 165.266L65.0725 156.249L66.5538 156.908Z" fill="#1E1E1E"/>
<path d="M56.035 152.318L55.1458 151.746L57.0055 148.853L58.3691 149.73L57.3477 151.319L62.3869 154.558L63.4083 152.969L64.7718 153.846L62.912 156.739L62.1413 156.243C61.2526 156.566 60.3993 157.363 59.5812 158.636L56.9211 162.774L51.538 159.314L56.035 152.318ZM60.6474 155.283L57.3986 153.195L53.7248 158.91L56.3807 160.617L58.2329 157.736C59.0255 156.503 59.8304 155.685 60.6474 155.283Z" fill="#1E1E1E"/>
<path d="M50.034 145.097L45.597 150.111L53.5175 148.18L54.4675 149.021L47.9287 156.41L46.7148 155.335L51.1518 150.321L43.2314 152.253L42.2813 151.412L48.8201 144.023L50.034 145.097Z" fill="#1E1E1E"/>
<path d="M35.6293 143.717L36.808 142.71L38.6121 144.82L44.9341 139.417L45.9872 140.65L39.6652 146.053L41.4785 148.174L40.2998 149.182L35.6293 143.717Z" fill="#1E1E1E"/>
<path d="M39.7373 134.911L37.3526 131.25L38.6519 130.404L41.9212 135.423L33.6533 140.808L30.4224 135.847L31.7217 135.001L34.0679 138.604L36.2176 137.204L34.0636 133.896L35.3511 133.058L37.505 136.365L39.7373 134.911Z" fill="#1E1E1E"/>
<path d="M32.5054 116.045L33.1843 117.853L30.1577 123.145L34.5519 121.495L35.1218 123.013L25.8848 126.481L25.3149 124.964L29.4584 123.408L23.9968 121.454L23.3179 119.646L29.22 121.69L32.5054 116.045Z" fill="#1E1E1E"/>
<path d="M25.913 109.691C26.0387 109.22 26.2675 108.822 26.5993 108.498C26.9312 108.173 27.3493 107.954 27.8536 107.842C28.6423 107.665 29.3605 107.798 30.0084 108.241C30.6562 108.683 31.0703 109.308 31.2508 110.115L32.1738 114.242L22.5449 116.395L21.6896 112.571C21.5132 111.783 21.6213 111.06 22.0138 110.404C22.3951 109.741 22.9663 109.325 23.7275 109.154C24.562 108.968 25.2905 109.147 25.913 109.691ZM23.1752 112.239L23.6767 114.481L26.2077 113.915L25.7062 111.673C25.6283 111.324 25.4435 111.058 25.1517 110.872C24.8508 110.689 24.5215 110.638 24.1638 110.718C23.8062 110.798 23.5348 110.984 23.3497 111.276C23.1554 111.569 23.0973 111.89 23.1752 112.239ZM29.7652 110.447C29.6832 110.08 29.4861 109.802 29.1739 109.612C28.8506 109.414 28.5009 109.358 28.1249 109.442C27.7489 109.526 27.4613 109.725 27.2619 110.039C27.0514 110.346 26.9871 110.683 27.0691 111.05L27.6383 113.595L30.3344 112.992L29.7652 110.447Z" fill="#1E1E1E"/>
<path d="M29.9714 98.759L28.0423 99.599L28.3621 103.787L30.3964 104.325L30.5306 106.081L20.4198 103.263L20.2716 101.323L29.8383 97.0163L29.9714 98.759ZM26.8034 103.369L26.5652 100.249L22.2431 102.148L26.8034 103.369Z" fill="#1E1E1E"/>
<path d="M20.4644 90.9911C20.5273 90.0629 20.889 89.3104 21.5497 88.7335C22.211 88.1472 23.0011 87.8852 23.9199 87.9474C24.8293 88.009 25.5768 88.3751 26.1625 89.0458C26.7393 89.7065 26.9964 90.5009 26.9335 91.4291L26.7973 93.4401L30.1725 93.6686L30.063 95.2859L20.2188 94.6194L20.4644 90.9911ZM25.4147 91.3262C25.4471 90.8481 25.3143 90.4435 25.0165 90.1126C24.7093 89.7809 24.3073 89.5983 23.8104 89.5647C23.3135 89.531 22.8952 89.6581 22.5554 89.9459C22.2064 90.2331 22.0156 90.6158 21.9832 91.0939L21.8471 93.1049L25.2785 93.3373L25.4147 91.3262Z" fill="#1E1E1E"/>
<path d="M22.6455 77.7993L24.1644 78.1106L23.6069 80.8308L31.7538 82.5005L31.4284 84.0885L23.2814 82.4188L22.7211 85.1529L21.2021 84.8416L22.6455 77.7993Z" fill="#1E1E1E"/>
<path d="M35.0029 72.1232L28.6939 69.882L33.4459 76.5064L33.0212 77.7018L23.7236 74.3989L24.2662 72.8715L30.5753 75.1127L25.8233 68.4883L26.248 67.2929L35.5456 70.5958L35.0029 72.1232Z" fill="#1E1E1E"/>
<path d="M29.6334 60.689C30.0673 59.8661 30.7031 59.3249 31.541 59.0655C32.3832 58.7978 33.2117 58.8787 34.0263 59.3081C34.8326 59.7332 35.3674 60.371 35.6308 61.2216C35.8902 62.0595 35.803 62.8899 35.3691 63.7128L34.4291 65.4958L37.4216 67.0735L36.6657 68.5074L27.9375 63.906L29.6334 60.689ZM34.0225 63.0029C34.246 62.5789 34.2887 62.1553 34.1507 61.732C34.0044 61.3043 33.7109 60.9743 33.2704 60.7421C32.8298 60.5098 32.3959 60.4563 31.9686 60.5817C31.5331 60.7026 31.2036 60.975 30.9801 61.399L30.0401 63.182L33.0825 64.7859L34.0225 63.0029Z" fill="#1E1E1E"/>
<path d="M36.5049 50.2041L37.4607 48.8775L41.6196 55.6438C42.6364 57.3029 42.6112 58.7846 41.544 60.0889L40.3204 59.2073C40.6902 58.7904 40.8825 58.3788 40.8973 57.9725C40.9175 57.5586 40.7746 57.1139 40.4685 56.6386L32.8877 55.2246L33.8435 53.898L39.4642 54.9943L36.5049 50.2041Z" fill="#1E1E1E"/>
<path d="M51.4617 35.5513L57.8921 43.035L56.6626 44.0914L52.0787 38.7566L53.0351 44.4765L52.8854 44.6051L47.3655 42.7878L51.9586 48.1333L50.7292 49.1897L44.2988 41.7061L45.6245 40.567L51.0955 42.3705L50.1468 36.6812L51.4617 35.5513Z" fill="#1E1E1E"/>
<path d="M60.0377 40.065L63.7366 37.7388L64.5621 39.0513L59.4909 42.2404L54.2383 33.8879L59.2498 30.7364L60.0752 32.0489L56.4359 34.3375L57.8016 36.5092L61.1426 34.4081L61.9605 35.7087L58.6195 37.8098L60.0377 40.065Z" fill="#1E1E1E"/>
<path d="M67.6903 26.7348L69.169 26.0705L73.212 35.071L71.7334 35.7352L70.1797 32.2764C69.681 32.8404 69.0845 33.2783 68.3902 33.5902C67.4901 33.9945 66.6456 34.0752 65.8565 33.8321C65.0721 33.5767 64.4932 33.0332 64.1197 32.2017L62.6758 28.9873L64.1544 28.3231L65.5291 31.3832C65.737 31.8461 66.0421 32.1469 66.4443 32.2855C66.8465 32.4242 67.292 32.3838 67.7806 32.1643C68.492 31.8447 69.078 31.4064 69.5386 30.8492L67.6903 26.7348Z" fill="#1E1E1E"/>
<path d="M79.4984 22.915L79.9314 24.4038L77.265 25.1792L79.5873 33.1647L78.0308 33.6173L75.7085 25.6318L73.0287 26.4112L72.5957 24.9224L79.4984 22.915Z" fill="#1E1E1E"/>
<path d="M84.3563 32.0124L83.0781 22.2288L84.6854 22.0188L85.1237 25.3732L87.1223 25.1121C88.0448 24.9916 88.8543 25.2033 89.5508 25.7472C90.2555 26.2806 90.6668 26.9993 90.7849 27.9031C90.903 28.8069 90.6906 29.6118 90.1479 30.3176C89.6133 31.0129 88.8847 31.4208 87.9623 31.5413L84.3563 32.0124ZM92.1553 30.9936L90.8771 21.2099L92.4844 20.9999L93.7626 30.7836L92.1553 30.9936ZM85.7664 30.293L87.7651 30.0319C88.2403 29.9698 88.6109 29.7603 88.877 29.4033C89.1419 29.037 89.2421 28.6069 89.1776 28.1131C89.1131 27.6192 88.9064 27.234 88.5575 26.9574C88.2074 26.6714 87.7947 26.5595 87.3195 26.6216L85.3209 26.8827L85.7664 30.293Z" fill="#1E1E1E"/>
<path d="M108.593 22.0014L110.203 22.189L109.061 31.9895L107.451 31.8019L107.945 27.5597L103.745 27.0703L103.25 31.3126L101.64 31.125L102.782 21.3245L104.392 21.5121L103.924 25.5303L108.124 26.0196L108.593 22.0014Z" fill="#1E1E1E"/>
<path d="M117.604 34.2861L117.457 32.1872L113.403 31.0893L112.216 32.8271L110.516 32.3666L116.551 23.7786L118.428 24.287L119.291 34.7429L117.604 34.2861ZM114.317 29.7599L117.338 30.5778L116.992 25.8695L114.317 29.7599Z" fill="#1E1E1E"/>
<path d="M126.84 26.297L127.371 25.0834L130.986 26.6671L130.455 27.8807L126.84 26.297ZM126.254 37.8899L128.941 31.7573L121.994 36.0234L120.832 35.5143L124.791 26.4767L126.276 27.1272L123.589 33.2598L130.536 28.9938L131.698 29.5028L127.739 38.5404L126.254 37.8899Z" fill="#1E1E1E"/>
<path d="M136.798 42.4238L137.69 42.9908L135.846 45.8937L134.478 45.0244L135.491 43.4302L130.434 40.2176L129.421 41.8118L128.053 40.9425L129.898 38.0396L130.671 38.5309C131.558 38.2038 132.407 37.4018 133.218 36.1248L135.856 31.9727L141.258 35.4045L136.798 42.4238ZM132.17 39.4834L135.43 41.5545L139.073 35.8201L136.408 34.1269L134.571 37.0179C133.785 38.2552 132.985 39.077 132.17 39.4834Z" fill="#1E1E1E"/>
<path d="M142.837 49.6124L147.247 44.5749L139.337 46.5484L138.382 45.7127L144.882 38.2891L146.101 39.3568L141.691 44.3943L149.601 42.4209L150.556 43.2565L144.056 50.6802L142.837 49.6124Z" fill="#1E1E1E"/>
<path d="M157.248 50.9167L156.075 51.9303L154.26 49.829L147.966 55.2656L146.907 54.0389L153.2 48.6024L151.376 46.4904L152.549 45.4768L157.248 50.9167Z" fill="#1E1E1E"/>
<path d="M153.187 59.744L155.591 63.3928L154.296 64.2459L151 59.2435L159.239 53.8149L162.496 58.7585L161.202 59.6115L158.836 56.0216L156.694 57.433L158.866 60.7287L157.583 61.574L155.411 58.2783L153.187 59.744Z" fill="#1E1E1E"/>
<path d="M160.52 78.5716L159.831 76.7674L162.83 71.4593L158.444 73.1327L157.866 71.6182L167.085 68.1006L167.663 69.615L163.528 71.193L169 73.1181L169.688 74.9223L163.775 72.909L160.52 78.5716Z" fill="#1E1E1E"/>
<path d="M167.145 84.8904C167.022 85.3621 166.795 85.7611 166.465 86.0874C166.135 86.4138 165.718 86.6347 165.214 86.7502C164.427 86.9307 163.708 86.8015 163.057 86.3625C162.407 85.9234 161.99 85.3009 161.805 84.4949L160.86 80.3731L170.478 78.1685L171.353 81.9879C171.534 82.7756 171.429 83.4985 171.04 84.1565C170.663 84.8215 170.094 85.2412 169.333 85.4154C168.5 85.6065 167.77 85.4315 167.145 84.8904ZM169.869 82.3281L169.356 80.0886L166.828 80.6681L167.341 82.9076C167.421 83.2556 167.607 83.5214 167.9 83.705C168.202 83.8865 168.532 83.9362 168.889 83.8543C169.246 83.7725 169.516 83.5851 169.7 83.2924C169.893 82.9976 169.949 82.6761 169.869 82.3281ZM163.289 84.1547C163.373 84.5211 163.571 84.7985 163.885 84.987C164.209 85.1826 164.559 85.2374 164.935 85.1513C165.31 85.0652 165.597 84.8645 165.794 84.5493C166.003 84.2411 166.066 83.9038 165.982 83.5374L165.399 80.9957L162.706 81.613L163.289 84.1547Z" fill="#1E1E1E"/>
<path d="M163.145 95.8438L165.069 94.9935L164.727 90.807L162.69 90.2805L162.547 88.5244L172.672 91.2893L172.831 93.228L163.287 97.5858L163.145 95.8438ZM166.288 91.2169L166.543 94.3357L170.855 92.4136L166.288 91.2169Z" fill="#1E1E1E"/>
<path d="M172.694 103.561C172.636 104.49 172.278 105.244 171.62 105.825C170.962 106.414 170.173 106.681 169.254 106.623C168.345 106.566 167.595 106.204 167.006 105.537C166.425 104.879 166.164 104.086 166.222 103.158L166.348 101.146L162.971 100.935L163.072 99.3173L172.92 99.9316L172.694 103.561ZM167.742 103.252C167.712 103.731 167.847 104.134 168.146 104.464C168.455 104.794 168.858 104.974 169.355 105.005C169.852 105.036 170.27 104.907 170.608 104.617C170.956 104.328 171.144 103.945 171.174 103.466L171.3 101.455L167.867 101.241L167.742 103.252Z" fill="#1E1E1E"/>
<path d="M170.581 116.764L169.061 116.461L169.604 113.738L161.448 112.111L161.765 110.522L169.921 112.148L170.467 109.411L171.987 109.714L170.581 116.764Z" fill="#1E1E1E"/>
<path d="M158.255 122.506L164.576 124.714L159.789 118.115L160.207 116.917L169.522 120.171L168.988 121.701L162.667 119.493L167.454 126.093L167.036 127.29L157.721 124.037L158.255 122.506Z" fill="#1E1E1E"/>
<path d="M163.684 133.911C163.255 134.737 162.622 135.281 161.786 135.545C160.945 135.817 160.116 135.741 159.299 135.316C158.49 134.895 157.952 134.26 157.684 133.411C157.421 132.574 157.503 131.743 157.933 130.918L158.863 129.13L155.862 127.568L156.611 126.131L165.363 130.686L163.684 133.911ZM159.283 131.621C159.062 132.046 159.021 132.47 159.162 132.892C159.31 133.319 159.605 133.648 160.047 133.878C160.489 134.108 160.923 134.159 161.35 134.031C161.785 133.908 162.113 133.634 162.334 133.209L163.265 131.421L160.214 129.833L159.283 131.621Z" fill="#1E1E1E"/>
<path d="M156.869 144.433L155.921 145.764L151.726 139.02C150.7 137.367 150.718 135.885 151.778 134.575L153.006 135.45C152.639 135.869 152.449 136.281 152.436 136.688C152.418 137.102 152.563 137.546 152.872 138.019L160.46 139.393L159.511 140.725L153.885 139.658L156.869 144.433Z" fill="#1E1E1E"/>
<path d="M141.99 159.165L135.52 151.715L136.744 150.652L141.356 155.963L140.369 150.248L140.518 150.119L146.048 151.906L141.426 146.585L142.65 145.522L149.12 152.972L147.801 154.118L142.32 152.344L143.299 158.028L141.99 159.165Z" fill="#1E1E1E"/>
<path d="M133.391 154.697L129.705 157.042L128.872 155.734L133.927 152.518L139.223 160.843L134.229 164.021L133.396 162.713L137.023 160.405L135.646 158.24L132.316 160.359L131.492 159.063L134.821 156.944L133.391 154.697Z" fill="#1E1E1E"/>
<path d="M125.808 168.067L124.333 168.739L120.242 159.76L121.717 159.088L123.289 162.539C123.785 161.972 124.379 161.531 125.072 161.215C125.969 160.806 126.814 160.721 127.604 160.96C128.39 161.211 128.971 161.752 129.349 162.581L130.81 165.788L129.335 166.46L127.944 163.407C127.734 162.945 127.427 162.646 127.024 162.51C126.621 162.373 126.176 162.416 125.689 162.638C124.979 162.961 124.395 163.403 123.938 163.962L125.808 168.067Z" fill="#1E1E1E"/>
<path d="M114.02 171.95L113.579 170.463L116.241 169.674L113.877 161.701L115.431 161.24L117.796 169.213L120.471 168.419L120.912 169.906L114.02 171.95Z" fill="#1E1E1E"/>
<path d="M109.114 162.878L110.444 172.655L108.838 172.873L108.382 169.521L106.385 169.793C105.463 169.918 104.652 169.711 103.953 169.171C103.245 168.641 102.83 167.925 102.707 167.021C102.584 166.118 102.793 165.312 103.332 164.604C103.862 163.905 104.589 163.494 105.511 163.368L109.114 162.878ZM101.321 163.938L102.651 173.715L101.044 173.934L99.7144 164.157L101.321 163.938ZM107.713 164.605L105.716 164.877C105.241 164.941 104.871 165.153 104.607 165.511C104.344 165.879 104.246 166.309 104.314 166.803C104.381 167.296 104.589 167.681 104.94 167.955C105.291 168.239 105.705 168.349 106.179 168.285L108.177 168.013L107.713 164.605Z" fill="#1E1E1E"/>
<circle cx="97" cy="97" r="13" fill="#02B0AF"/>
</svg>
