<svg width="153" height="48" viewBox="0 0 153 48" fill="none" xmlns="http://www.w3.org/2000/svg">
<g clip-path="url(#clip0_10_1130)">
<path fill-rule="evenodd" clip-rule="evenodd" d="M0.677003 42.9258V43.5498H0.264038V42.5144H0.473905C0.562962 42.3967 0.631637 42.2645 0.677003 42.1236C0.696571 41.9596 0.696571 41.7938 0.677003 41.6298V39.5727H2.85014V42.5144H3.10063V43.5361H2.70798V42.9258H0.677003ZM0.89364 42.5144H2.41687V40.0047H1.10351V41.6298C1.10903 41.938 1.0368 42.2425 0.89364 42.5144ZM8.18483 42.9121H5.79506V39.607H8.15775V40.0047H6.2351V41.0196H8.00882V41.4173H6.2351V42.5144H8.18483V42.9121ZM11.062 39.5933H12.4905C12.6618 39.5867 12.8318 39.6245 12.9847 39.703C13.1158 39.7699 13.2243 39.875 13.2961 40.0047C13.3699 40.1337 13.4074 40.2808 13.4044 40.4298C13.414 40.576 13.3771 40.7215 13.2991 40.8449C13.2212 40.9683 13.1062 41.0631 12.9712 41.1156C13.1279 41.1773 13.2707 41.2706 13.3909 41.3898C13.4524 41.4634 13.499 41.5484 13.528 41.6402C13.5571 41.732 13.568 41.8287 13.5601 41.9247C13.5611 42.0979 13.5167 42.2682 13.4315 42.4184C13.3417 42.5718 13.21 42.6956 13.0524 42.775C12.8673 42.8669 12.6627 42.9116 12.4566 42.9053H11.062V39.5933ZM11.5089 41.0127H12.2942C12.4718 41.0245 12.6489 40.9815 12.8019 40.8893C12.8618 40.8405 12.9087 40.7772 12.9382 40.7054C12.9678 40.6335 12.9791 40.5553 12.9712 40.4778C12.9769 40.4089 12.9657 40.3397 12.9385 40.2763C12.9113 40.2129 12.869 40.1572 12.8155 40.1144C12.661 40.0196 12.481 39.9764 12.3009 39.991H11.5089V41.0127ZM11.5089 42.5144H12.4431C12.6257 42.5268 12.8065 42.4707 12.9509 42.3567C13.0094 42.2991 13.0553 42.2296 13.0857 42.1528C13.116 42.076 13.13 41.9936 13.1269 41.911C13.1269 41.5338 12.8764 41.3487 12.3686 41.3487H11.5089V42.5144ZM18.7256 42.8984H16.329V39.607H18.6917V40.0047H16.7691V41.0196H18.5428V41.4173H16.7691V42.5144H18.7188L18.7256 42.8984ZM22.185 39.9773V42.0001C22.196 42.2085 22.154 42.4163 22.0632 42.6036C21.9975 42.7348 21.8867 42.8372 21.7517 42.8916C21.6151 42.9421 21.4707 42.9677 21.3252 42.967V42.5624C21.3868 42.5721 21.4497 42.5665 21.5086 42.5462C21.5676 42.5259 21.6208 42.4915 21.6637 42.4458C21.7339 42.3184 21.7668 42.1733 21.7585 42.0276V39.607H23.9249V42.9258H23.4916V40.0047L22.185 39.9773ZM28.2779 42.9876C28.0223 42.9955 27.7687 42.9389 27.54 42.823C27.3462 42.723 27.179 42.5772 27.0526 42.3978C26.9324 42.2277 26.8431 42.0373 26.7886 41.8356C26.6801 41.4454 26.6801 41.0325 26.7886 40.6424C26.8431 40.4407 26.9324 40.2503 27.0526 40.0801C27.179 39.9008 27.3462 39.755 27.54 39.655C27.7701 39.5465 28.0208 39.4902 28.2745 39.4902C28.5283 39.4902 28.779 39.5465 29.0091 39.655C29.2078 39.7503 29.3783 39.8969 29.5033 40.0801C29.624 40.249 29.7114 40.44 29.7605 40.6424C29.869 41.0325 29.869 41.4454 29.7605 41.8356C29.7114 42.038 29.624 42.229 29.5033 42.3978C29.3783 42.581 29.2078 42.7277 29.0091 42.823C28.7849 42.9476 28.5336 43.0136 28.2779 43.015V42.9876ZM28.2779 39.8881C28.0646 39.8819 27.8544 39.9417 27.6754 40.0596C27.5032 40.1797 27.3673 40.3459 27.2828 40.5396C27.1094 40.9798 27.1094 41.4707 27.2828 41.911C27.3673 42.1047 27.5032 42.2708 27.6754 42.391C27.8547 42.5081 28.0647 42.5678 28.2779 42.5624C28.4883 42.5676 28.6954 42.5081 28.8718 42.3918C29.0482 42.2756 29.1858 42.1079 29.2663 41.911C29.3565 41.6939 29.4029 41.4608 29.4029 41.2253C29.4029 40.9898 29.3565 40.7566 29.2663 40.5396C29.1861 40.3432 29.0493 40.1759 28.8737 40.0596C28.6941 39.9514 28.4863 39.9012 28.2779 39.9156V39.8881ZM35.2036 39.607V42.9258H34.7635V40.0047H33.071V42.9258H32.631V39.607H35.2036ZM40.5382 42.9258H38.1485V39.607H40.5112V40.0047H38.5885V41.0196H40.3622V41.4173H38.5885V42.5144H40.5382V42.9258ZM43.8555 42.9258H43.4155V39.607H44.9251C45.102 39.6038 45.2767 39.6463 45.4329 39.7304C45.5752 39.8072 45.6928 39.9238 45.7714 40.0664C45.849 40.2141 45.8886 40.3792 45.8865 40.5464C45.8872 40.7957 45.8036 41.0377 45.6495 41.2321C45.558 41.3324 45.4454 41.4103 45.3199 41.4602C45.1945 41.5101 45.0595 41.5306 44.9251 41.5201H43.8555V42.9258ZM43.8555 41.1361H44.7762C45.2163 41.1361 45.4532 40.9373 45.4532 40.5396C45.4532 40.1418 45.2366 39.9841 44.7762 39.9841H43.8555V41.1361ZM50.9571 40.5944C50.9421 40.4858 50.904 40.3818 50.8456 40.2895C50.7872 40.1972 50.7098 40.1188 50.6186 40.0596C50.4458 39.9587 50.2494 39.9067 50.05 39.9087C49.8588 39.9049 49.6707 39.9573 49.5084 40.0596C49.3402 40.1657 49.208 40.3211 49.1293 40.5053C49.0289 40.7314 48.9803 40.9775 48.9871 41.2253C48.9694 41.58 49.0591 41.9317 49.2443 42.2333C49.3372 42.3624 49.4614 42.4649 49.6049 42.531C49.7485 42.5971 49.9064 42.6245 50.0635 42.6104C50.1867 42.6078 50.3083 42.5823 50.4223 42.535C50.5588 42.475 50.676 42.3777 50.7608 42.2538C50.8807 42.0902 50.9597 41.8997 50.991 41.6984H51.4107C51.383 42.014 51.2601 42.3132 51.0587 42.5556C50.9093 42.7266 50.7177 42.8544 50.5036 42.9258C50.3388 42.9768 50.168 43.0044 49.9958 43.0081C49.8083 43.0085 49.6224 42.9736 49.4474 42.9053C49.2736 42.8378 49.1164 42.7324 48.9871 42.5967C48.8375 42.4385 48.7242 42.2489 48.6554 42.0413C48.5748 41.7818 48.5359 41.5109 48.5403 41.239C48.5393 41.0065 48.5735 40.7752 48.6418 40.5533C48.7038 40.352 48.8051 40.1655 48.9397 40.0047C49.0705 39.8498 49.2351 39.7277 49.4204 39.6481C49.6197 39.5639 49.834 39.5219 50.05 39.5247C50.2842 39.5201 50.5162 39.5718 50.727 39.6756C50.9064 39.7682 51.06 39.905 51.1738 40.0733C51.2812 40.2327 51.3486 40.4163 51.3701 40.6081L50.9571 40.5944ZM54.6332 42.9258H54.1999V39.607H54.6332V41.2116L56.1903 39.607H56.7996L55.4456 40.9784L56.7996 42.9601H56.2309L55.1003 41.2938L54.5858 41.7944L54.6332 42.9258ZM59.7174 41.959L59.3789 42.9258H58.9321L60.1507 39.607H60.6449L61.8161 42.9258H61.3422L61.0172 41.959H59.7174ZM60.8615 41.5613L60.3809 40.1007L59.8596 41.5613H60.8615ZM66.3993 41.4996H65.7223L64.761 42.9258H64.1855L65.1943 41.4996C65.0483 41.4989 64.9046 41.4637 64.7745 41.3967C64.6254 41.3287 64.5003 41.2162 64.4157 41.0744C64.3147 40.9078 64.2652 40.7143 64.2736 40.519C64.2652 40.3291 64.3174 40.1416 64.4225 39.9841C64.5209 39.8508 64.6547 39.7485 64.8084 39.6893C64.9811 39.6326 65.1617 39.6048 65.3432 39.607H66.8394V42.9258H66.3993V41.4996ZM66.3993 39.991H65.3093C64.9235 39.991 64.7271 40.1761 64.7271 40.5464C64.7216 40.6723 64.7547 40.7969 64.8219 40.903C64.8801 40.985 64.9634 41.0452 65.0589 41.0744C65.1648 41.1033 65.2741 41.1171 65.3838 41.1156H66.3993V39.991ZM72.4922 42.9258H72.059V39.607H72.4922V41.2116L74.0696 39.607H74.6721L73.3182 40.9784L74.6721 42.9601H74.1035L72.9729 41.2938L72.4584 41.7944L72.4922 42.9258ZM78.4836 43.015C78.2302 43.022 77.979 42.9655 77.7524 42.8504C77.5552 42.7528 77.3853 42.6066 77.2582 42.4253C77.1428 42.2533 77.0559 42.0634 77.001 41.863C76.8925 41.4729 76.8925 41.06 77.001 40.6698C77.053 40.4684 77.1401 40.278 77.2582 40.1076C77.3853 39.9262 77.5552 39.7801 77.7524 39.6824C77.9825 39.5739 78.2332 39.5177 78.487 39.5177C78.7408 39.5177 78.9915 39.5739 79.2215 39.6824C79.4171 39.7798 79.5849 39.9261 79.709 40.1076C79.8291 40.2777 79.9185 40.4681 79.973 40.6698C80.0814 41.06 80.0814 41.4729 79.973 41.863C79.9185 42.0648 79.8291 42.2551 79.709 42.4253C79.5849 42.6067 79.4171 42.7531 79.2215 42.8504C79.0071 42.9588 78.7707 43.0152 78.531 43.015H78.4836ZM78.4836 39.9156C78.2732 39.9104 78.0661 39.9699 77.8897 40.0861C77.7133 40.2024 77.5758 40.37 77.4952 40.567C77.4017 40.783 77.3555 41.0169 77.3598 41.2527C77.3587 41.4882 77.4048 41.7215 77.4952 41.9384C77.5775 42.1335 77.7139 42.3002 77.8878 42.4184C78.0681 42.5306 78.2754 42.59 78.487 42.59C78.6985 42.59 78.9059 42.5306 79.0861 42.4184C79.2583 42.2983 79.3942 42.1321 79.4788 41.9384C79.6521 41.4981 79.6521 41.0073 79.4788 40.567C79.3965 40.3719 79.2601 40.2052 79.0861 40.087C78.9207 39.9781 78.7283 39.9187 78.531 39.9156H78.4836ZM85.5243 42.9258V40.4573C85.5243 40.3064 85.5243 40.1967 85.5243 40.135L84.6239 42.9258H84.1906L83.2699 40.1418C83.2699 40.1418 83.2699 40.4161 83.2699 40.9647V42.9258H82.8502V39.607H83.473L84.4005 42.4116L85.3212 39.607H85.9779V42.9258H85.5243ZM91.4277 39.607V42.9258H90.9876V40.0047H89.2951V42.9258H88.8551V39.607H91.4277ZM94.8803 41.959L94.5418 42.9258H94.1018L95.3204 39.607H95.8146L96.9925 42.9258H96.5119L96.1937 41.959H94.8803ZM96.0177 41.5613L95.5438 40.1007L95.0293 41.5613H96.0177ZM101.772 39.607H102.226V42.9258H101.786V41.3761H100.093V42.9258H99.6531V39.607H100.093V40.9784H101.786L101.772 39.607ZM105.611 42.2881L107.229 39.607H107.75V42.9258H107.323V40.2447L105.678 42.9258H105.184V39.607H105.611V42.2881ZM112.787 41.4996H112.11L111.135 42.9258H110.559L111.568 41.4996C111.422 41.4989 111.278 41.4637 111.148 41.3967C110.999 41.3287 110.874 41.2162 110.79 41.0744C110.689 40.9078 110.639 40.7143 110.647 40.519C110.639 40.3291 110.691 40.1416 110.796 39.9841C110.895 39.8508 111.029 39.7485 111.182 39.6893C111.355 39.6326 111.536 39.6048 111.717 39.607H113.213V42.9258H112.773L112.787 41.4996ZM112.787 39.991H111.704C111.318 39.991 111.121 40.1761 111.121 40.5464C111.116 40.6723 111.149 40.7969 111.216 40.903C111.273 40.9861 111.357 41.0467 111.453 41.0744C111.559 41.1033 111.668 41.1171 111.778 41.1156H112.794L112.787 39.991Z" fill="#C5C5C5"/>
<path fill-rule="evenodd" clip-rule="evenodd" d="M99.3484 47.9451L125.345 0L138.783 23.3143C128.933 24.432 112.631 27.3531 99.3484 47.9451Z" fill="#02B0AF"/>
<path d="M153 47.9999C153 47.7393 122.163 46.8479 127.335 35.4308C129.183 31.3165 134.579 28.9851 138.844 27.0993C142.683 25.4193 146.616 25.3439 150.069 25.2891C146.508 26.2285 144.93 26.6605 141.647 28.3405L153 47.9999Z" fill="url(#paint0_linear_10_1130)"/>
<path fill-rule="evenodd" clip-rule="evenodd" d="M10.3647 23.4791C12.1249 24.1099 13.3435 24.8917 14.0002 25.8242C14.7231 26.9711 15.0713 28.3194 14.9954 29.6779C14.9954 32.1739 14.3838 34.0368 13.1607 35.2665C11.9376 36.4962 10.0488 37.1065 7.49429 37.0974H0.433275C0.142168 37.0974 3.0268e-07 36.9397 3.0268e-07 36.6311V35.7397C0.000442118 35.6172 0.03848 35.498 0.108838 35.3985C0.179197 35.299 0.278388 35.2241 0.392655 35.1842C0.629665 35.0968 0.83488 34.9385 0.981151 34.7304C1.12742 34.5222 1.20786 34.274 1.21181 34.0185V16.1899C1.23025 16.0147 1.1897 15.8383 1.09673 15.6894C0.89255 15.517 0.664441 15.3761 0.419735 15.2711C0.203098 15.1751 0.0812392 15.0859 0.0473897 14.9694C0.00320006 14.7021 -0.0126865 14.4309 3.0268e-07 14.1602C-0.0289418 13.8962 0.0255774 13.6297 0.155708 13.3991C0.221399 13.3276 0.302906 13.2729 0.393528 13.2395C0.484151 13.2061 0.581301 13.195 0.676991 13.2071H8.59779C10.1996 13.0997 11.7785 13.6369 12.9915 14.7019C13.4966 15.1929 13.8939 15.7862 14.1576 16.4431C14.4212 17.1 14.5452 17.8058 14.5215 18.5145C14.5551 19.7077 14.122 20.8661 13.3164 21.7374C12.5207 22.5964 11.4949 23.2017 10.3647 23.4791ZM6.59389 14.8734V22.6288H7.35212C7.55781 22.6401 7.76356 22.6075 7.956 22.5331C8.14844 22.4587 8.32328 22.3441 8.46916 22.1968C8.78364 21.7903 8.95091 21.2869 8.94305 20.7705C8.98367 20.0848 9.00398 19.2688 9.00398 18.2539C9.00398 16.8277 8.87535 15.9088 8.61133 15.5111C8.47764 15.3006 8.28962 15.1312 8.06766 15.0212C7.8457 14.9112 7.59825 14.8648 7.35212 14.8871L6.59389 14.8734ZM6.59389 24.3294V35.3968C7.20358 35.4625 7.8184 35.3355 8.35407 35.0334C8.71538 34.6318 8.90521 34.1019 8.88212 33.5591C8.93628 32.8322 8.96336 31.5911 8.96336 29.8562C8.96336 29.4997 8.96336 28.6905 8.91597 27.4357C8.93547 26.6732 8.88105 25.9107 8.7535 25.1591C8.67112 24.9133 8.51188 24.7015 8.29991 24.5557C8.01345 24.3859 7.68329 24.307 7.35212 24.3294H6.59389ZM23.39 14.4414V13.6597C23.39 13.3579 23.5458 13.2071 23.8639 13.2071H30.7828C30.9585 13.1868 31.1361 13.2228 31.2905 13.3099C31.365 13.3785 31.4056 13.5842 31.4056 13.9339C31.4258 14.2608 31.3985 14.5889 31.3244 14.9077C31.2904 14.9745 31.2404 15.0315 31.1788 15.0735C31.1173 15.1154 31.0462 15.141 30.9723 15.1477C30.8368 15.1637 30.7057 15.207 30.5868 15.2748C30.4679 15.3427 30.3635 15.4338 30.2797 15.543C30.1959 15.6521 30.1344 15.777 30.0987 15.9105C30.0631 16.0439 30.054 16.1832 30.0719 16.3202V34.1488C30.0832 34.3483 30.1539 34.5397 30.2748 34.6976C30.3956 34.8556 30.561 34.9726 30.7489 35.0334C30.9458 35.1055 31.1191 35.2313 31.2499 35.3968C31.3254 35.5715 31.3579 35.762 31.3447 35.9522V36.5145C31.3447 36.8231 31.3447 37.0014 31.2499 37.0425C31.1086 37.0915 30.9587 37.1102 30.8099 37.0974H23.7353C23.4645 37.0974 23.3291 36.9877 23.3291 36.7682C23.307 36.3325 23.332 35.8956 23.4036 35.4654C23.4442 35.3077 23.6202 35.1842 23.9046 35.0951C24.4258 34.9511 24.6899 34.6699 24.6899 34.2517V16.6699C24.7051 16.3503 24.6568 16.0308 24.5477 15.7305C24.4065 15.4815 24.1801 15.2937 23.9113 15.2025C23.7394 15.1492 23.585 15.0496 23.4645 14.9145C23.3994 14.7661 23.3738 14.603 23.39 14.4414ZM45.9135 26.5785V33.9225C45.9006 34.1533 45.9235 34.3846 45.9812 34.6082C46.0577 34.7658 46.1807 34.8952 46.3333 34.9785C46.4673 35.0747 46.5732 35.2057 46.6399 35.3578C46.7067 35.5098 46.7317 35.6773 46.7124 35.8425C46.7504 36.2016 46.6992 36.5646 46.5634 36.8985C46.4917 36.9719 46.4045 37.0278 46.3083 37.0623C46.2122 37.0967 46.1097 37.1087 46.0083 37.0974H39.9425C39.5972 37.0974 39.4212 36.8368 39.4212 36.3225C39.4096 36.004 39.4255 35.6851 39.4686 35.3694C39.4838 35.2973 39.5184 35.231 39.5686 35.1777C39.6188 35.1245 39.6826 35.0863 39.7529 35.0677C40.0035 34.9706 40.2162 34.7938 40.359 34.5638C40.5018 34.3338 40.5671 34.063 40.545 33.7922V16.4574C40.545 15.8197 40.3148 15.4219 39.868 15.2848C39.7057 15.2476 39.5561 15.1671 39.4347 15.0517C39.355 14.8327 39.3249 14.5983 39.3467 14.3659C39.3467 13.6048 39.5498 13.2277 39.956 13.2277H47.9242C48.7175 13.2307 49.5022 13.3943 50.2323 13.7087C50.9624 14.0231 51.6231 14.482 52.1757 15.0585C52.8106 15.7023 53.3054 16.4736 53.6284 17.3227C53.9514 18.1718 54.0953 19.08 54.051 19.9888C54.051 22.9145 52.5909 24.8299 49.6708 25.7351C52.3382 26.3294 53.6696 28.0597 53.6651 30.9259V34.4505C53.6544 34.5837 53.6789 34.7174 53.736 34.8379C53.7931 34.9584 53.8808 35.0613 53.99 35.1362C54.1179 35.2274 54.2206 35.3503 54.2881 35.4932C54.3557 35.6361 54.3859 35.7941 54.3759 35.9522C54.4027 36.2958 54.3706 36.6414 54.2812 36.9739C54.2067 37.0837 54.0307 37.1385 53.7463 37.1385H49.8942C49.6415 37.1256 49.398 37.0383 49.1936 36.8873C48.9891 36.7362 48.8327 36.528 48.7434 36.2882C48.4275 35.6755 48.2736 34.9905 48.2965 34.2997V28.3271C48.3297 28.0884 48.3074 27.8452 48.2314 27.6168C48.1555 27.3884 48.028 27.1811 47.8591 27.0113C47.6902 26.8416 47.4845 26.7141 47.2584 26.6389C47.0323 26.5638 46.792 26.5431 46.5567 26.5785H45.9135ZM45.9135 14.9214V24.8505H46.8681C47.8294 24.8505 48.3101 23.8699 48.3101 21.9088V17.1431C48.3716 16.5239 48.2105 15.9031 47.8565 15.3945C47.6655 15.2107 47.4383 15.0698 47.1898 14.9812C46.9413 14.8925 46.6771 14.8581 46.4145 14.8802L45.9135 14.9214ZM71.0367 26.4345V34.1899C71.0367 34.5877 71.2872 34.8757 71.7814 35.0539C71.9415 35.1021 72.091 35.1813 72.2214 35.2871C72.342 35.6153 72.3838 35.9679 72.3433 36.3157C72.3774 36.5508 72.3371 36.7909 72.2282 37.0014C72.0918 37.0968 71.9256 37.1383 71.7611 37.1179H64.9167C64.5782 37.1179 64.4157 36.9671 64.4157 36.6654V35.7877C64.4157 35.4379 64.6323 35.1842 65.0927 35.0334C65.2733 34.9915 65.4352 34.8902 65.5531 34.7454C65.6465 34.5444 65.6861 34.3222 65.6681 34.1008V26.7979L62.7571 16.2448C62.7118 16.0197 62.6154 15.8083 62.4756 15.6274C62.3358 15.4465 62.1564 15.3011 61.9515 15.2025C61.8547 15.1674 61.7717 15.1019 61.7144 15.0155C61.6571 14.9291 61.6287 14.8265 61.6333 14.7225V13.6048C61.6333 13.3374 61.7687 13.2071 62.053 13.2071H68.1459C68.2109 13.1974 68.2773 13.2057 68.3381 13.2311C68.3988 13.2564 68.4517 13.2979 68.4912 13.3511C68.5724 13.6006 68.6023 13.8643 68.5792 14.1259C68.5879 14.3966 68.572 14.6674 68.5318 14.9351C68.4781 15.0685 68.3765 15.1763 68.2475 15.2368C68.1503 15.2951 68.069 15.377 68.011 15.4752C67.9531 15.5734 67.9203 15.6848 67.9157 15.7991C67.9168 15.9485 67.942 16.0967 67.9902 16.2379L69.8655 22.8482L71.7678 16.2311C71.7856 16.1382 71.7856 16.0428 71.7678 15.9499C71.746 15.7572 71.684 15.5714 71.5859 15.4047C71.4879 15.238 71.3561 15.0943 71.1992 14.9831C71.129 14.934 71.0695 14.871 71.0241 14.7979C70.9787 14.7249 70.9484 14.6432 70.9351 14.5579V13.7145C70.9351 13.3922 71.0841 13.2345 71.3616 13.2345H74.557C74.8481 13.2345 74.9971 13.3922 74.9971 13.7145V14.6402C74.9829 14.7419 74.9463 14.8391 74.8901 14.9245C74.8338 15.01 74.7593 15.0815 74.6721 15.1339C74.2931 15.412 74.0204 15.8141 73.9004 16.2722L71.0367 26.4345ZM83.6016 13.2277H89.8503C90.0669 13.2277 90.2023 13.2688 90.2565 13.3648C90.3415 13.6442 90.3714 13.9377 90.3445 14.2288C90.3704 14.4129 90.3455 14.6006 90.2726 14.7712C90.1997 14.9419 90.0817 15.0887 89.9315 15.1957C89.7593 15.2784 89.6121 15.4062 89.505 15.5659C89.4137 15.8012 89.3766 16.0545 89.3967 16.3065V32.8734C89.3792 33.2781 89.5176 33.6739 89.7826 33.9774C89.904 34.1144 90.0536 34.2229 90.2209 34.2952C90.3881 34.3674 90.5689 34.4017 90.7507 34.3957C90.9313 34.3976 91.1098 34.3556 91.2712 34.2733C91.4326 34.191 91.5721 34.0707 91.6781 33.9225C91.9275 33.6314 92.0645 33.2588 92.064 32.8734V16.2859C92.0761 16.0814 92.0485 15.8764 91.9828 15.6825C91.8768 15.5189 91.7413 15.377 91.5834 15.2642C91.4102 15.1233 91.2739 14.9414 91.1865 14.7345C91.0992 14.5276 91.0634 14.3021 91.0824 14.0779C91.0824 13.6665 91.1298 13.3922 91.2246 13.3305C91.2785 13.2844 91.3411 13.2497 91.4085 13.2285C91.476 13.2073 91.5469 13.2 91.6172 13.2071H94.7382C94.8087 13.1964 94.8808 13.2028 94.9485 13.2257C95.0162 13.2486 95.0776 13.2873 95.1278 13.3388C95.1779 13.3902 95.2153 13.4529 95.237 13.5218C95.2587 13.5906 95.2641 13.6637 95.2527 13.7351V14.4208C95.2681 14.6213 95.2498 14.8231 95.1985 15.0174C95.1646 15.0997 95.0496 15.1751 94.8668 15.2437C94.6614 15.3015 94.482 15.4292 94.3587 15.6053C94.2354 15.7814 94.1758 15.9951 94.1898 16.2105V32.3934C94.2247 33.0569 94.1283 33.7209 93.9063 34.3462C93.6842 34.9715 93.341 35.5455 92.8967 36.0345C92.424 36.5029 91.8604 36.8666 91.2415 37.1027C90.6227 37.3388 89.9622 37.4421 89.3019 37.4059C88.5852 37.4559 87.866 37.3556 87.1892 37.1114C86.5125 36.8672 85.8927 36.4842 85.3686 35.9865C84.4002 34.8491 83.9136 33.3707 84.0146 31.8722V16.2448C84.0156 16.0428 83.9541 15.8455 83.8388 15.6807C83.7234 15.5159 83.56 15.3918 83.3715 15.3259C83.2196 15.2737 83.0857 15.1785 82.9856 15.0517C82.9257 14.8779 82.9026 14.6933 82.9179 14.5099C82.8938 14.1452 82.9304 13.779 83.0262 13.4265C83.0871 13.2825 83.2699 13.2071 83.6016 13.2071V13.2277ZM87.0611 11.6574L88.74 9.00365C88.9123 8.67335 89.1789 8.40333 89.505 8.2288C90.133 8.1196 90.7709 8.08051 91.4074 8.11223C91.9231 8.08792 92.4399 8.11318 92.9509 8.18765C93.0251 8.19622 93.0934 8.23268 93.1423 8.28983C93.1912 8.34697 93.2171 8.42064 93.2149 8.49623C93.207 8.6158 93.1659 8.73068 93.0965 8.8277C93.027 8.92473 92.932 8.99997 92.8223 9.0448L88.1916 11.6574H87.0611ZM104.358 13.1797H113.443C113.647 13.1797 113.748 13.2414 113.748 13.3717C113.751 13.4242 113.751 13.4768 113.748 13.5294C113.748 13.5637 113.714 13.6528 113.674 13.7968L111.23 25.0151L104.676 37.0974H103.58C103.39 37.0974 103.295 37.0494 103.295 36.9534C103.304 36.7207 103.343 36.4902 103.41 36.2677L108.352 14.8597H107.371C106.755 14.8597 106.261 15.6345 105.909 17.1842C105.863 17.5831 105.703 17.9598 105.448 18.2677C105.163 18.4256 104.838 18.4948 104.514 18.4665C104.287 18.478 104.06 18.4619 103.837 18.4185C103.729 18.3774 103.681 18.2814 103.681 18.1305C103.691 17.9557 103.712 17.7817 103.742 17.6094L104.358 13.1797Z" fill="#02B0AF"/>
<path d="M113.592 33.0444L112.99 37.097H108.806C110.317 35.6467 111.915 34.2933 113.592 33.0444Z" fill="url(#paint1_linear_10_1130)"/>
</g>
<defs>
<linearGradient id="paint0_linear_10_1130" x1="134.992" y1="47.1702" x2="151.927" y2="28.8238" gradientUnits="userSpaceOnUse">
<stop stop-color="#616161"/>
<stop offset="1" stop-color="#A5A3A1"/>
</linearGradient>
<linearGradient id="paint1_linear_10_1130" x1="110.708" y1="37.3096" x2="113.723" y2="33.9742" gradientUnits="userSpaceOnUse">
<stop stop-color="#616161"/>
<stop offset="1" stop-color="#A5A3A1"/>
</linearGradient>
<clipPath id="clip0_10_1130">
<rect width="153" height="48" fill="white"/>
</clipPath>
</defs>
</svg>
